<?xml version="1.0" encoding="utf-8"?>
<!-- Generator: Adobe Illustrator 21.1.0, SVG Export Plug-In . SVG Version: 6.00 Build 0)  -->
<svg version="1.1" id="Слой_1" xmlns="http://www.w3.org/2000/svg" xmlns:xlink="http://www.w3.org/1999/xlink" x="0px" y="0px"
	 viewBox="0 0 595.3 841.9" style="enable-background:new 0 0 595.3 841.9;" xml:space="preserve">
<style type="text/css">
	.st0{fill:#FFFFFF;}
</style>
<path class="st0" d="M468.4,475.4h-89.9c-12.2-2.6-23.7-4.6-34.9-5.8c-9.2-1-18.5-1.4-27.2-1.7c-8.8-0.2-18-0.2-28.1,0.1
	c-6.3,0.2-12.6,0.7-18.7,1.2l-6.1,0.5c-5.9,0.5-12,1-17.9,1.8c-7.2,1-14.6,2.3-22.2,3.8h-96.5v5.9h70.4c-7.2,1.9-14.1,3.8-20.7,5.9
	h-32.4v35.3h21.5l-0.8,0.3c-0.3,0.1-0.6,0.2-0.9,0.3l-10.9,4.2c-5.8,2.2-11.6,4.5-17.4,6.7c-0.9,0.4-1.7,0.9-2.2,1.3
	c-0.1,0-0.1,0.1-0.2,0.1l-3.9,2.6l9.6,6c5.3,3.3,10.2,6.4,15.3,9.5c0.1,0,0.1,0.1,0.1,0.1c0,0.1,0,0.1,0,0.2l-0.2,1.6
	c-0.4,3.1-0.8,6.2-1.2,9.4c-0.3,2.9-0.6,5.8-0.9,8.9l-0.9,9.4l4.7-2.1c5.7-2.5,11.3-4.9,16.7-7.1l124.7,72.6L421,573.1
	c6,2.4,12,4.9,17.9,7.6l4.7,2.2l-0.7-7.8c-0.2-1.7-0.3-3.2-0.5-4.7l-0.6-5.2c-0.4-3.8-0.9-7.8-1.2-11.5c0-0.1,0-0.2,0.1-0.3
	c5.2-3.4,10.3-6.6,15.8-10.1l9.3-5.9l-4.4-2.5c-8.5-4.8-18-8.5-31-12.2c-0.2-0.1-0.4-0.1-0.6-0.1l-0.4-0.1h21.6v-35.3h-30.6
	c-6.1-2.2-12.2-4.1-18.4-5.9h66.3V475.4z"/>
<polygon class="st0" points="451.1,319.4 426,319.4 426,271.8 297.4,195.3 167,271.3 167,319.4 144.2,319.4 144.2,354.7 
	451.1,354.7 "/>
<path d="M360.2,542.2c-0.4,0.7-0.7,1.6-1.2,2.1c-0.8,0.8-1.9,1.3-2.8,2c-0.8,0.6-1.6,1.4-2.4,2.1c0.1,0.1,0.2,0.1,0.2,0.2
	c1.8-0.7,3.6-1.4,5.4-2.2c-0.2-0.1-0.3-0.2-0.5-0.3c0.9-1.2,1.9-2.4,3.1-3.8L360.2,542.2c-1.7-1.9-3.3-3.8-5.1-6
	c1.1-0.1,1.7-0.1,2.9-0.2c-1.6-1.8-2.9-3.2-4.6-5c1.7,0.2,2.7,0.3,4.1,0.5c-3.2-5-8.4-3.6-12.6-5v12.2c5.2-1.9,8.5-2,10-0.8
	c-0.7,1.8-1.4,3.4-2,5C355.5,542.7,357.8,542.5,360.2,542.2 M276.5,543.6v2.4c-0.8,0.8-1.7,1.6-2.7,2.5c2.8,1.2,3.1,2.4,1.2,4.3
	c-1,1-1.8,2.1-3.1,3.5c1.5,0,2.4,0,3.3,0c0.8,0,1.6,0.1,2.7,0.3c-3.1,2.8-5.7,5.2-8.9,8.1c2.2-0.2,3.6-0.3,4.9-0.4
	c-2.4,3.4-4.7,6.7-6.9,10.1c0.2,0.2,0.4,0.3,0.6,0.5c1.4-0.4,2.7-0.7,4.1-1.1c0.2,0.2,0.3,0.3,0.5,0.5c-5.5,7.5-9,15.8-9.9,25.2
	c-0.2-9.7-4.5-17.7-9.7-25.3c0.2-0.1,0.3-0.3,0.5-0.4c1.4,0.4,2.7,0.8,4.1,1.2c0.2-0.2,0.4-0.4,0.6-0.5c-2.3-3.3-4.5-6.5-6.9-10
	c1.2,0.1,2.6,0.2,4.8,0.3c-3.1-2.9-5.8-5.3-8.7-8c1.8-0.2,3.5-0.4,5.8-0.6c-1.9-2-3.6-3.8-5.3-5.5c-0.8-0.8-2.5-1.1-1.4-2.5
	c0.5-0.6,2-0.3,3.1-0.2c0.5,0,0.9,0.6,1.7,0.5c-1-0.8-2.1-1.6-3-2.5c-0.5-0.5-0.8-1.3-1.3-2c1.4-2.2,3.4-0.8,5.1-0.7
	c-0.5-1.4-0.9-2.6-1.3-3.8c-0.2-0.5-0.5-1-0.8-1.4c0.6-0.2,1.2-0.7,1.7-0.7c2.7,0.2,5.5,0.6,8.3,0.9c-0.6-3.9,1.6-7.9-0.2-11.9
	c-4.6,0.8-9.5,0.4-12.2,5.3c1.3-0.2,2.4-0.3,3.6-0.5c0.2,0.2,0.3,0.5,0.5,0.7c-1.5,1.2-3.1,2.4-4.6,3.6c0.1,0.2,0.3,0.4,0.4,0.5
	c0.7,0.1,1.4,0.1,3,0.3c-3.7,2-4,4.6-3.4,7.6c-0.9,2.3-1.8,4.6-2.7,7c-0.2,0.5-0.2,1.1-0.5,2.3c-0.5-1.1-0.8-1.6-1-2.1
	c-0.9-2.4-1.7-4.9-2.8-7.3c-0.6-1.3-1.8-2.5,1.2-3c-1.3-1.8-2.4-3.3-3.6-4.9c0.9-0.1,1.6-0.2,3-0.4c-1.5-1.3-2.6-2.4-4-3.6
	c0.8-0.3,1.5-0.5,2.1-0.7c0-0.3-0.1-0.6-0.1-0.9c-1.8,0.2-3.7,0.2-5.4,0.6c-16.9,3.7-33.5,8.5-49.7,14.8c-0.1,0.1-0.3,0-0.9,0
	c-7.3-16.2-14.6-32.7-22.1-49.4c3-1.1,5.9-2.2,8.8-3.2c16.9-5.9,34.3-10.4,51.8-14c8.5-1.8,17-3.3,25.6-4.5c6.9-1,14-1.5,21-2.1
	c7.1-0.6,14.3-1.3,21.4-1.5c9.3-0.3,18.6-0.3,27.9-0.1c9,0.2,18,0.6,26.9,1.6c13.8,1.6,27.5,4.1,41,7.2c16.5,3.8,32.6,8.9,48.3,15.3
	c0.9,0.4,1.8,0.8,3.2,1.5c-7.6,16.5-15.1,32.9-22.7,49.4c-15.5-6.9-31.1-11.7-47.3-14.8c0.6,0.3,1.2,0.7,1.9,1.1
	c-1.1,1-2.2,2-3.6,3.3c1.3,0.2,2,0.3,2.7,0.4c-1.1,1.6-2.1,3.3-3.2,5c0.9,0.3,1.5,0.5,1.8,0.7c-1.5,3.8-2.9,7.5-4.5,11.5
	c-0.4-1.7-0.7-3.1-1.1-4.9c-2.8,2.6-5.4,5.1-8.4,8c2.4,0.2,4.1,0.4,6.1,0.5c-2.9,2.7-5.6,5.1-8.7,8c2.1-0.1,3.4-0.2,5.3-0.3
	c-3,3.5-6,6.3-7.1,10.6c1.5-0.4,2.8-0.7,4.1-1.1c0.2,0.1,0.3,0.2,0.5,0.4c-5.1,7.6-9.2,15.6-9.8,24.9c-1-4.4-1.5-8.9-3.1-13
	c-1.6-4.1-4.2-7.9-6.7-12.3c1.7,0.4,2.9,0.7,4.4,1.1c-0.5-4.4-4.2-6.8-6.5-10.5c1.6,0.1,2.9,0.2,5.1,0.4c-3.1-2.8-5.8-5.2-8.8-8
	c1.9-0.2,3.6-0.4,5.5-0.6c-0.9-1.1-1.6-2.2-2.5-3.1c-2.3-2.2-2.1-3.3,0.8-4.4c-0.1-1.8-4.2-1.6-2.2-4.3c0.6-0.8,1.9-1.1,2.6-1.5
	c-0.1-1.1-0.6-2.9-0.1-4.1c0.7-1.5,2.4-1.7,4.1-1c1.3,0.5,2.8,0.5,4.4,0.8c0-3.6,0.1-7.2-0.1-10.8c0-0.7-0.8-1.7-1.4-1.8
	c-3.4-0.5-6.9-0.7-10.4-1.1c-2.2-0.3-2.9,0.8-2.7,2.7c0.1,1.2,0.2,2.5,0.3,3.6c3-0.3,5.8-0.6,8.6-0.9c0.1,0.2,0.2,0.5,0.3,0.7
	c-1.6,1.5-3.3,3-5.2,4.7c1.4,0.3,2.4,0.5,3.9,0.7c-1.7,1.3-3.1,2.3-4.7,3.5c0.9,0.4,1.4,0.6,1.9,0.8c-0.1,2.5-5.2,4.4-1.5,7.1
	c-1.5,4.9-3,9.5-4.6,14.5c-1.7-5.5-2-11.3-6.1-15.9h4c-1.7-2.9-3.2-5.4-4.7-8c0.5-0.8,1.1-1.7,1.7-2.6c0.9-0.3,1.9-0.6,2.8-0.8
	c0-0.3,0-0.7,0-1c-1-0.2-2.1-0.6-3-0.5c-2.9,0.5-3.9-1.2-5-3.9c3.2,0.6,6,1.2,9,1.8c-0.5-2.4,0.9-5-1-6.6c-1.4,0.1-2.3,0.1-3.1,0.2
	c-0.6,0-1.3,0-1.7,0.3c-2.6,2.4-5.2,0.7-7.3-0.5c-2.1-1.3-2.9-0.6-3.1,1.1c-0.4,3.8-0.5,7.7-0.7,11.4c4.9-1.3,9.5-2.4,14-3.6
	c0.1,0.3,0.2,0.5,0.3,0.8c-0.4,0.5-0.8,1-1.2,1.4c-3,2.5-6.1,5-9.1,7.5c0.1,0.1,0.3,0.3,0.4,0.4c2-0.3,3.9-0.6,6.1-0.9
	c-2.9,4-5.6,7.8-8.2,11.5c0.2,0.2,0.4,0.3,0.6,0.5c1.4-0.3,2.8-0.5,4.2-0.8l0.5,0.4c-6.3,6.8-7.6,15.7-10.9,24.1
	c-1.2-4.2-2.1-8.5-3.7-12.5c-1.6-4.1-3.9-7.9-6-12c1.3,0.3,2.7,0.6,4.1,0.8c0.2-0.1,0.4-0.3,0.6-0.4c-2.6-3.8-5.3-7.5-8.1-11.6
	c2.1,0.3,4.1,0.6,6,0.9c-2.1-2.4-4.3-4.9-6.4-7.4c0.9-1.8,1.8-2.1,3.4-1.4c2.2,1,4.6,1.7,7.4,2.6c-0.2-4.1-0.3-7.9-0.6-11.7
	c-0.2-1.8-1.4-2.5-3.2-1.5c-1.1,0.6-2.3,0.9-3.4,1.4c-1.3,0.6-2.5,0.5-3.6-0.4c-0.4-0.3-0.8-0.7-1.3-0.8c-3.2-0.5-4.8-0.8-4.6,3.1
	c0.1,1.2,0,2.5,0,3.6c3-0.6,5.7-1.1,8.5-1.7c0.1,0.2,0.2,0.5,0.3,0.7c-1.2,1.3-2.5,2.6-3.7,3.9c0,0,0.4,0.2,0.8,0.4
	c-0.8,0.8-1.6,1.5-2.7,2.6h2.8c-1.8,3-3.5,5.8-5.5,9h4.1c-4,4.8-5,10.3-6.2,15.7c-1.4-4.6-2.9-9.2-4.4-14.1
	C277.3,546.8,277.9,545.4,276.5,543.6c-0.7-1-1.4-2-2.1-3c0.7-0.3,1.2-0.6,2-1c-1.5-1.1-2.8-2.1-4.5-3.4c1.4-0.3,2.3-0.5,3.8-0.8
	c-1.9-1.6-3.6-3-5.6-4.7c3.4-1,6.2-0.4,9,0.6v-6.7c-4.1,0.2-8.1,0.4-12,0.8c-0.7,0.1-1.9,1.2-1.9,1.9c-0.2,3.7-0.1,7.4-0.1,11.2
	c0.8-0.1,1.3-0.2,1.9-0.4c1.3-0.3,2.6-0.9,3.8-0.8c1,0,2.8,0.7,2.9,1.3c0.3,1.4-0.2,3-0.3,4.4C274.3,543.2,275.4,543.4,276.5,543.6"
	/>
<path d="M154.9,578.3c0.5-4.7,0.8-8.9,1.3-13.1c0.4-3.6,0.9-7.3,1.4-10.9c0.2-1.4-0.2-2.5-1.5-3.3c-7-4.3-13.9-8.6-21-13.1
	c0.4-0.3,1.1-0.9,1.8-1.2c9.4-3.7,18.9-7.3,28.3-10.9c1.6-0.6,2.2,0.2,2.8,1.5c3.2,7.2,6.7,14.4,9.6,21.7c1.3,3.2,3.4,3.9,6.3,4.3
	c6.4,0.7,12.8,1.6,19.2,2.4c3.4,0.4,6.7,0.7,10.2,1.4C193.4,562.5,174.2,569.7,154.9,578.3"/>
<path d="M460.2,537.5c-7.2,4.6-14.2,8.9-21.1,13.5c-0.7,0.5-1.3,1.9-1.2,2.8c0.5,5.6,1.2,11.2,1.8,16.9c0.2,2.2,0.4,4.4,0.7,7.3
	c-19.2-8.8-38.5-15.8-58.5-21.4c11.2-1.4,22.3-2.9,34-4.4c2.7-5.5,5.6-11.5,8.6-17.6c1.2-2.5,2.3-5.1,3.6-7.6
	c0.3-0.6,1.3-1.5,1.7-1.3C440.3,528.6,450.6,532.1,460.2,537.5"/>
<path d="M410.6,549.3c-11,1.4-22,2.8-33.5,4.3c1.8-4.7,3.4-8.9,5.2-13.1c0.2-0.6,1.5-1.3,2-1.1c8.8,2.9,17.6,5.9,26.4,8.9
	C410.6,548.7,410.6,549,410.6,549.3"/>
<path d="M217.9,553.9c-11.4-1.4-22.6-2.8-33.7-4.1c0-0.1-0.1-0.3-0.1-0.4c1.7-0.7,3.3-1.5,5-2c7.2-2.3,14.4-4.5,21.6-6.7
	c0.6-0.2,1.9,0.2,2.1,0.6C214.6,545.4,216.2,549.5,217.9,553.9"/>
<path d="M444.6,360.8c-5.4-6.6-10.7-13-15.9-19.4c-6.6-8.2-13.3-16.4-19.8-24.7c-7.3-9.3-15.6-17.8-21.6-28.2
	c-2.7-4.7-8.3-6.3-12.8-3.4c-4.5,2.8-8.4,6.6-12.5,10c-2.3,1.9-4.3,4-6.3,5.9c-10.8-14.9-21.3-29.6-32.2-44.1
	c-4.8-6.3-10.1-12.2-15.7-17.8c-5-5-11.6-4.8-16.3,0.5c-4.4,5-8.9,10-13.7,14.6c-13.9,13.1-27.8,26.1-41.7,39.3
	c-1.5,1.4-2.4,2-3.9,0.2c-1.2-1.4-2.6-2.6-4.1-3.6c-2.7-2-5.4-4.1-8.4-5.5c-3.7-1.8-8.1-0.5-10.5,2.8c-4.3,5.8-8.4,11.8-12.9,17.4
	c-6.5,8.3-13.3,16.3-19.9,24.5c-6.2,7.7-12.4,15.4-18.6,23.1c-2.2,2.7-4.5,5.3-7.1,8.3c0.9,0.1,1.3,0.2,1.6,0.2
	c9.6,0,19.3,0.1,28.9-0.1c1.1,0,2.5-0.7,3.2-1.4c2.3-2.3,4.5-4.7,6.4-7.3c3.3-4.5,2.8-5.6-2.6-6.4c-0.2-2.3,1.4-5.5,4.6-7.9
	c1.8-1.3,4.1-2.4,6.3-2.8c2.5-0.5,5.3,0.2,7.8-0.2c5.4-0.9,10.1-3.5,12.3-8.8c1.6-3.9,4-7,7-9.7c2.6-2.4,6.2-3,8.9,0.2
	c1,1.1,1.9,2.3,2.8,3.5c3.4,4.8,6.5,9.7,10.2,14.3c5,6.2,12,9.4,19.6,11c4.7,1,9.5,1.3,14.2,2c0.1-0.3,0.2-0.6,0.3-0.9
	c-9-9.8-17.9-19.6-27.1-29.6c1.8-1.6,3.6-3,5.1-4.6c4.2-4.1,3.9-5.6-1.2-7.7c-1.4-0.6-1.4-1.3-0.7-2.2c0.9-1.3,1.9-2.6,2.9-3.7
	c3.3-3.5,6.9-6,12.1-5.1c3.1,0.5,6.4,1.1,9.5,0.9c6.4-0.4,12-2.9,15.2-8.7c2.5-4.5,6-7.6,10.1-10.3c3.8-2.5,7.4-1.8,9.8,2
	c2.2,3.6,4.2,7.4,6.2,11.2c3.6,6.7,6.4,14,12.5,19.1c2.3,2,4.9,3.7,7.3,5.5c-10.2,11.1-20.3,22.1-30.4,33.1c0.1,0.3,0.2,0.6,0.3,0.9
	c3.6-0.4,7.2-0.8,10.8-1.3c11.7-1.6,20.8-7.1,27.1-17.2c2.8-4.5,6.3-8.6,9.7-12.8c1.6-2,3.9-2.2,6-0.9c3.6,2.1,6.8,5,8,8.9
	c2.8,9.2,12.6,11.8,19.2,11.5c1.1,0,2.1-0.5,3.1-0.4c4.4,0.7,9.1,5.7,10,10.5c-0.4,0.1-0.9,0.3-1.3,0.4c-3.7,0.4-4.5,1.6-2.4,4.7
	c1.9,2.8,4.3,5.2,6.4,7.9c0.9,1.2,1.9,1.9,3.1,2.4H444.6z"/>
<path class="st0" d="M203.8,435.3c-0.1,0.1-0.2,0.2-0.2,0.2c0,0,0.1,0.1,0.1,0.1c0.1,0,0.2-0.1,0.2-0.1
	C203.9,435.6,203.8,435.5,203.8,435.3 M208.9,420.7c-0.1,0-0.2-0.1-0.3-0.1c0,0-0.1,0.1-0.1,0.1c0,0.1,0.1,0.1,0.1,0.2
	C208.6,420.9,208.7,420.9,208.9,420.7 M211.1,396.4c0,0.1,0,0.2,0,0.2c0,0,0.1,0,0.2,0.1c0-0.1,0.1-0.2,0.1-0.2
	C211.3,396.4,211.2,396.4,211.1,396.4 M163.7,414.1c-0.2-0.1-0.3-0.2-0.3-0.2c-0.1,0-0.1,0.1-0.2,0.1c0.1,0.1,0.1,0.2,0.2,0.2
	C163.4,414.3,163.5,414.2,163.7,414.1 M169.1,424.1c0.1-0.1,0.1-0.2,0.2-0.2c-0.1,0-0.2-0.1-0.4-0.1c-0.1,0-0.2,0.1-0.2,0.1
	c0,0.1,0.1,0.2,0.1,0.3C168.9,424.2,169,424.2,169.1,424.1 M206.6,443.7c-0.1-0.1-0.2-0.2-0.3-0.2c-0.1,0.1-0.2,0.2-0.2,0.3
	c0,0.1,0.1,0.2,0.2,0.2C206.4,444,206.4,443.9,206.6,443.7 M202.9,422.2c0-0.1-0.1-0.2-0.1-0.2c-0.1,0-0.3-0.1-0.4-0.1
	c-0.1,0-0.2,0.1-0.3,0.2c0.1,0.1,0.3,0.2,0.4,0.2C202.6,422.3,202.8,422.2,202.9,422.2 M191.3,412.5c-0.3,0.2-0.4,0.4-0.2,0.6
	c0.1,0.1,0.3,0.1,0.3,0C191.7,412.9,191.6,412.7,191.3,412.5 M207.4,427.2c0.1-0.1,0.2-0.1,0.2-0.2c0-0.1,0.2-0.2,0.1-0.3
	c-0.1-0.1-0.2-0.3-0.4-0.4c-0.1,0.1-0.2,0.2-0.2,0.3C207.2,426.8,207.3,427,207.4,427.2 M202.7,409.1c-0.2,0.2-0.4,0.3-0.4,0.5
	c0,0.1,0.2,0.3,0.3,0.4c0.3,0.1,0.5-0.1,0.5-0.4C203.1,409.4,202.9,409.3,202.7,409.1 M207.5,407.8c-0.3-0.2-0.4-0.3-0.6-0.3
	c-0.1,0-0.3,0.2-0.3,0.3c0.1,0.2,0.2,0.3,0.4,0.4C207.1,408.2,207.3,408,207.5,407.8 M206.2,445.5c-0.2-0.2-0.3-0.4-0.4-0.4
	c-0.3-0.1-0.5,0.1-0.5,0.4c0,0.1,0.2,0.4,0.3,0.3C205.8,445.8,206,445.7,206.2,445.5 M205.8,406.7c0.2-0.3,0.5-0.4,0.5-0.5
	c0-0.1-0.2-0.3-0.4-0.4c-0.1,0-0.4,0.2-0.4,0.3C205.5,406.2,205.6,406.4,205.8,406.7 M205.8,384.1c-0.3-0.2-0.6-0.3-0.8,0
	c-0.1,0.2-0.2,0.5-0.1,0.6c0.2,0.3,0.5,0.1,0.6-0.1C205.7,384.4,205.8,384.3,205.8,384.1 M207.8,423.1c0.3-0.4,0.5-0.7,0.1-1.1
	C207.2,422.4,207.2,422.5,207.8,423.1 M170.3,387.8c-0.2,0.8-0.2,1,0.5,1.4C171.2,388.5,170.7,388.2,170.3,387.8 M209.5,428
	c0.1-0.1,0.1-0.1,0.2-0.2c-0.1-0.3-0.2-0.6-0.4-0.8c-0.2-0.2-0.5-0.3-0.7,0c-0.2,0.3-0.1,0.6,0.2,0.7
	C209,427.9,209.3,427.9,209.5,428 M163.2,447.8c0.5,0.1,0.8,0.1,1.1,0.1c0.2,0,0.4-0.1,0.5-0.2c0.1-0.1,0-0.4,0-0.4
	c-0.2-0.1-0.4-0.2-0.6-0.1C163.8,447.3,163.6,447.5,163.2,447.8 M208.1,382.4c-0.6,0.1-1,0.2-1.2,0.8
	C207.8,383.7,208,383.6,208.1,382.4 M172.4,426.9c0-0.5-0.4-0.8-0.7-0.8c-0.3,0-0.4,0.2-0.4,0.5c0,0.4,0.2,0.6,0.6,0.6
	C172.1,427.2,172.3,427,172.4,426.9 M202.3,449.7c-0.1,0-0.2,0.1-0.3,0.1c0,0.3,0,0.6,0,0.9c0.1,0.3,0.3,0.5,0.6,0.4
	c0.3-0.1,0.4-0.4,0.3-0.7C202.8,450.2,202.6,450,202.3,449.7 M184.4,418.9c-0.3-0.2-0.5-0.5-0.7-0.5c-0.4,0-0.5,0.2-0.6,0.6
	c0,0.3,0.3,0.7,0.5,0.6C183.9,419.5,184.1,419.2,184.4,418.9 M202.5,419.6c-0.1-0.1-0.2-0.4-0.5-0.5c-0.3-0.1-0.5,0.3-0.5,0.7
	c0,0.3,0.1,0.6,0.4,0.6C202.4,420.4,202.5,420.1,202.5,419.6 M209.1,436.2c-0.6,0-1.2,0.4-1.1,0.8c0,0.1,0.2,0.3,0.3,0.3
	c0.4,0.1,1-0.4,1-0.8C209.4,436.4,209.2,436.3,209.1,436.2 M170,447.5c-0.4-0.5-1.3-0.8-1.6-0.7c-0.1,0-0.2,0.2-0.2,0.3
	c0,0.1,0.1,0.3,0.1,0.3C168.8,447.6,169.4,447.8,170,447.5 M203.6,397.7c-0.3,0.3-0.6,0.5-0.9,0.7c-0.1,0.1,0.1,0.4,0.1,0.4
	c0.3,0,0.7-0.1,1-0.1c0,0,0.1,0,0.1,0c0.1-0.2,0.3-0.4,0.3-0.5C204.1,398,203.9,397.9,203.6,397.7 M204.8,436.7
	c-0.1,0.2-0.2,0.2-0.3,0.3c0,0.2-0.1,0.5,0,0.7c0.1,0.1,0.4,0.2,0.6,0.1c0.3,0,0.7,0,0.7-0.4c0-0.2-0.4-0.4-0.6-0.6
	C205.1,436.8,205,436.8,204.8,436.7 M207.5,428.7c0,0.4,0.3,0.7,0.7,0.6c0.3,0,0.7-0.1,0.7-0.5c0-0.4-0.3-0.7-0.8-0.7
	C207.7,428.2,207.5,428.3,207.5,428.7 M169.4,434.1c-0.7,0.6-0.5,1.3,0.5,1.6C170.2,435,170.1,434.7,169.4,434.1 M166.8,450.4
	c-0.3,0.5-0.3,1.1-0.1,1.6c0.1,0.3,0.6,0.4,0.7,0.1c0.1-0.3,0.2-0.7,0.1-1.1C167.5,450.6,167.3,450.4,166.8,450.4 M199.5,407.8
	c0.2-0.1,0.3-0.1,0.4-0.1c0.2-0.4,0.5-0.8,0.6-1.3c0.1-0.3-0.3-0.5-0.6-0.4c-0.4,0.1-0.9,0.9-0.8,1.3
	C199.2,407.5,199.4,407.7,199.5,407.8 M169,418c-0.9-0.9-1.2-0.8-1.7,0.1C168,419,168.3,419,169,418 M199.7,438.3
	c-0.4,0.3-0.7,0.7-1.2,1.1c1.7,0.1,1.9,0,2.3-0.7C200.5,438.6,200.1,438.5,199.7,438.3 M201.6,408.4c0.4-0.2,0.8-0.4,1.2-0.6
	c0.1-0.1,0.1-0.5,0-0.7c0-0.1-0.4-0.2-0.6-0.1c-0.3,0.1-0.6,0.3-0.9,0.5c-0.1,0.1-0.3,0.4-0.2,0.5
	C201.1,408.1,201.4,408.2,201.6,408.4 M172.1,396.4c0,0.3-0.1,0.5-0.1,0.7c0,0.3,0.1,0.5,0,0.8c0,0.3,0,0.6,0.4,0.6
	c0.4,0.1,0.6-0.2,0.6-0.5C173.2,397.4,173,396.9,172.1,396.4 M208.2,423.4c-0.1,0.3-0.2,0.5-0.2,0.6c0.3,0.5,0.6,1,0.3,1.5
	c0,0,0.3,0.3,0.4,0.3c0.5,0,1-1,0.6-1.4C209.1,424,208.7,423.8,208.2,423.4 M206.4,425.7c-0.2-0.6-0.3-1.2-0.5-1.7
	c-0.1-0.2-0.5-0.3-0.7-0.3c-0.3,0.1-0.3,0.5-0.1,0.7c0.4,0.5,0.6,0.9,0.5,1.6c0,0.1,0.2,0.3,0.3,0.3c0.1,0,0.3-0.1,0.4-0.2
	C206.3,426,206.3,425.8,206.4,425.7 M184.5,415.1c0.5,0.4,1,0.8,1.5,1.2c0.2-0.1,0.4-0.2,0.5-0.3c0.3-0.2,0.4-0.5,0.3-0.9
	c-0.1-0.4-0.4-0.5-0.8-0.6C185.4,414.4,184.9,414.5,184.5,415.1 M200.5,415.6c0.5-0.6,0.5-0.9,0.3-1.4c-0.2-0.5-0.7-0.5-1.1-0.5
	c-0.6,0-0.8,0.4-0.5,0.9c0.4,0.6,1,1.1,1,2.1c0.4-0.3,0.6-0.4,0.8-0.6C200.8,415.8,200.6,415.7,200.5,415.6 M200.7,431.3
	c-0.2,1,0,1.3,0.9,1.3c0.3,0,0.7,0.2,0.9,0.4c0.2,0.1,0.3,0.4,0.5,0.6c0.1,0.1,0.3,0.2,0.4,0.1c0.1,0,0.2-0.3,0.2-0.4
	c-0.2-0.5-0.4-1-0.7-1.5c-0.1-0.1-0.3-0.3-0.4-0.3C201.9,431.7,201.3,431.5,200.7,431.3 M189.6,415.6c0.3,0.2,0.6,0.4,0.9,0.6
	c0.2,0.2,0.5,0.3,0.7,0.5c0.5,0.5,0.8,0.5,1.1-0.2c0.2-0.5,0.2-0.8-0.3-1.1c-0.3-0.2-0.6-0.3-0.9-0.5
	C190.4,414.6,190.1,414.7,189.6,415.6 M207.3,451c0-0.2,0-0.4-0.1-0.5c-0.5-0.6-0.7-1.3-0.7-2c0-0.1,0-0.3-0.1-0.4
	c-0.1-0.1-0.3-0.3-0.5-0.3c-0.2,0-0.3,0.3-0.3,0.5c0,0.2,0.1,0.4,0.2,0.6c0.2,0.7,0.1,0.9-0.5,1.3c-0.2,0.1-0.3,0.4-0.3,0.6
	c0,0.2,0.3,0.4,0.5,0.4C206.1,451.2,206.7,451.1,207.3,451 M210.4,453.8c-0.2,0-0.4-0.1-0.6-0.1c-0.7,0.2-1.4,0.4-2.1,0.6
	c-0.4,0.1-0.9,0.3-1,0.9c0,0.6,0.3,1.4,0.8,1.6c0.3,0.1,0.5,0.2,0.8-0.1c0.6-0.9,1.3-1.7,1.9-2.6C210.4,454.1,210.4,454,210.4,453.8
	 M198.3,414.9c-0.6,0-0.8,0.5-1.1,0.7c-0.3,0.3-0.8,0.3-1.3,0.5c-0.1,0-0.1,0.1-0.1,0.1c-0.2,0-0.5,0-0.7,0c-0.2,0-0.3-0.2-0.6-0.4
	c0,0.5,0,0.8,0,1.2c-0.1,0.6,0.1,1,0.7,1.1c0.3,0.1,0.5,0.3,0.7,0.4c0.2,0.1,0.5,0.4,0.7,0.3c0.4-0.1,0.2-0.5,0.2-0.8
	c0-0.1,0-0.2,0-0.3c-0.2-0.7,0.2-1.1,0.7-1.5c0.1-0.1,0.3-0.2,0.4-0.3C198.3,415.7,198.5,415.4,198.3,414.9 M170.6,414.5
	c0,0.1,0,0.3,0,0.4c0.9,0,1.5,0.7,2.4,0.5c0.7-0.2,1.3,0.2,1.5,0.7c0.4,1,1.3,1.2,2.1,1.5c0.4,0.2,0.6-0.1,0.5-0.5
	c0-0.2-0.2-0.5-0.2-0.7c0-0.8,0.4-1.1,1.1-0.9c0.2,0.1,0.5,0.1,0.7,0.2c0.3-0.6,0.5-1.2,0.8-1.8c-1-0.2-1.3,1-2.3,0.7
	c0-0.2-0.1-0.4,0-0.7c0.1-0.6-0.1-1-0.6-1.2c-0.5-0.2-0.6-0.6-0.5-1.1c0.1-0.4,0.1-0.7-0.3-0.9c-0.4-0.2-0.7-0.2-1.1,0.1
	c-0.6,0.5-1.3,0.3-1.9,0.3c-0.7-0.1-1.4-0.2-1.7-1c-1.1,0.3-1.9,1.1-2.8,1.7c-0.1,0.1-0.2,0.4-0.1,0.5c0.1,0.1,0.4,0.3,0.5,0.2
	c0.5-0.1,0.9-0.4,1.4-0.6c0.2-0.1,0.5-0.2,0.6-0.2c0.5,0.2,1,0.4,1.4,0.8c0.6,0.5,0.6,0.6,1.2-0.1c0.2-0.3,0.5-0.3,0.7,0
	c0.2,0.3,0.2,0.6-0.1,0.7c-0.4,0.2-0.8,0.4-1.3,0.5C172.1,414.1,171.4,414.3,170.6,414.5 M194,411.9c0.1,0.9,0.4,1.5,1.3,1.3
	c0.1,0.3,0.3,0.6,0.4,0.9c0.8-0.6,0.3-1.4,0.4-2.1c0.2-0.1,0.4-0.1,0.6-0.2c0.3-0.1,0.5-0.3,0.8-0.4c0.3-0.1,0.6-0.3,0.9-0.2
	c0.4,0,0.3,0.4,0.4,0.8c0,0,0.1,0.1,0.1,0.2c0.4-0.1,0.5-0.5,0.7-0.8c0.1-0.3,0.3-0.6,0.4-0.9c0.2-0.4,0.5-0.7,1-0.5
	c0.3,0.1,0.5,0,0.5-0.4c0-0.3-0.3-0.4-0.6-0.3c-0.2,0-0.4,0.1-0.6,0.2c-0.1-0.2-0.3-0.3-0.4-0.4c-0.6-0.6-0.8-0.6-1.5-0.3
	c-0.2,0.1-0.5,0-0.7,0c0-0.3-0.1-0.6,0-0.8c0.2-0.4,0.5-0.6,0.8-1.1c-0.8-0.2-0.9-0.6-0.9-1.3c0-2.2,0-4.3,0-6.5
	c0-0.5,0.1-1,0.1-1.5c0-0.2,0-0.4,0-0.6c-0.1-1.7-0.2-3.5-0.2-5.2c0-3.4,0-6.8,0-10.3v-0.9c0.8-0.3,11.3-0.3,12.2-0.1
	c0.1,0.4-0.1,0.5-0.4,0.7c-0.3,0.2-0.6,0.5-0.4,0.9c0.2,0.4,1,0.5,1.4,0.2c0.4-0.2,0.8-0.6,1.2-0.8c0.2-0.1,0.4-0.1,0.6-0.2
	c0,0.4,0,0.7,0,1c0,2.3,0,4.6,0,6.8c0,3.2,0,6.3,0,9.5c0,1.4,0,2.8,0.1,4.2c0,0.5-0.2,0.9-0.6,1.2c-0.9,0.8-1.9,1.6-2.9,2.5
	c-0.2,0.1-0.4,0.5-0.3,0.6c0.1,0.2,0.4,0.4,0.6,0.5c0.4,0,0.8-0.1,1.2-0.3c0.4-0.2,0.7-0.6,1.1-0.8c0.2-0.1,0.5-0.2,0.7-0.2
	c0.1,0,0.2,0.4,0.2,0.6c0,1.5-0.1,3.1-0.1,4.6c0,0.9,0,1.7,0,2.6c0,4,0,8,0,12.1c0,3.3,0,6.6,0,9.9c0,1.8,0,3.7,0,5.5
	c0,0.1,0,0.2,0,0.3c0.4,1.4,0.1,2.7,0,4.1c-0.1,1.8,0,3.7,0,5.5c0,0.7,0,1.3-0.6,1.8c0.6,0.7,0.6,1.4,0.6,2.2c0,1.2,0,2.3,0,3.5
	c0,0.8,0,0.9-0.9,0.9c-4.3,0-8.6,0-12.9,0c-0.2,0-0.4-0.1-0.8-0.1c0.2-0.3,0.3-0.5,0.4-0.5c0.2-0.1,0.5-0.1,0.7-0.2
	c0.4-0.2,0.6-0.5,0.4-0.8c-0.2-0.5-0.4-1.1-0.9-1.4c-0.5-0.2-0.6-0.5-0.6-1c0-1.1,0.1-2.2,0.1-3.3c0-0.3,0.1-0.5,0.1-0.8
	c0-0.8,0.2-1.5,1.1-1.8c0.1,0,0.1-0.2,0.2-0.3c-0.3-0.2-0.6-0.3-0.9-0.4c-0.4-0.1-0.6-0.4-0.6-0.8c0-2.9,0-5.9,0-8.8
	c0-4.5,0-8.9,0-13.4c0-0.5,0-0.9,0.5-1.2c0.4-0.2,0.4-0.6,0.3-1c-0.2-0.7-0.5-1.4-0.4-2.2c0-0.5-0.3-1-0.9-1.2
	c-0.4,0.3-0.2,0.7-0.1,1c0.3,0.6,0.4,1.2,0.2,2c-2.5,0.1-5-0.1-7.5,0c-0.2-0.4,0.4-0.8-0.1-1.1c-0.4-0.2-0.8,0.1-1,0.3
	c-0.7,0.7-1.5,0.7-2.3,0.7c-2.6,0-5.3,0-7.9,0c-0.3,0-0.5,0-0.8,0c-0.9,0-0.9,0-0.9,1c0,7.2,0,14.3,0,21.5c0,0.5-0.1,1-0.1,1.5
	c0,0.1-0.1,0.3,0,0.4c0.4,3.9,0.1,7.7,0.2,11.6c0,0.7-0.1,0.8-0.9,0.8c-3.6,0-7.2,0-10.7,0c-0.6,0-1.3,0.1-1.9,0
	c-0.8,0-0.9-0.2-0.9-0.9c0-0.2,0-0.4,0-0.6c0-0.4,0.2-0.7,0.6-0.7c0.6,0,1-0.3,1.3-0.6c0.2-0.2,0.3-0.5,0.1-0.8
	c-0.2-0.3-0.5-0.3-0.8-0.1c-0.4,0.2-0.7,0.5-1.3,0.3c-0.1-4.6,0-9.3,0-14c0-4.7,0-9.4,0-14.1c0-4.7,0-9.3,0-14c0-4.7,0-9.4,0-13.9
	c0.5-0.4,1.2-0.1,1.1-0.8c-0.1-0.6-0.7-0.3-1.1-0.5c0-0.3,0-0.6,0-0.9c0-5.5,0-10.9,0-16.4c0-0.4,0-0.8,0-1.2c0-0.8,0-0.9,0.8-0.9
	c1.5,0,3,0,4.6,0c2.8,0,5.5,0,8.3-0.1c0.1,0,0.3,0,0.4,0c0.6,0.1,0.7,0.2,0.7,0.8c0,0.4,0,0.8,0,1.1c0,7.3,0,14.6,0,22
	c0,0.3,0,0.6,0,0.9c0,0.6-0.3,1-0.8,1.2c-0.3,0.2-0.7,0.3-1,0.5c-0.7,0.4-1,1-0.8,1.5c0.4,0.6,1,0.7,1.7,0.3
	c0.2-0.1,0.3-0.2,0.5-0.2c0,0,0.1,0,0.3,0.1c0,0.5,0,1.1,0,1.6c0,1.8,0,1.8,1.8,1.8c4.1,0,8.2,0,12.4,0
	C192,411.9,193,411.9,194,411.9"/>
<path class="st0" d="M248.7,390.3c0,0,0-0.1-0.1-0.1c0,0-0.1,0-0.1,0c0,0.1,0.1,0.1,0.1,0.2C248.7,390.4,248.7,390.3,248.7,390.3
	 M256.6,444.1c0.1-0.1,0.2-0.1,0.2-0.2c0-0.1-0.1-0.2-0.1-0.2c-0.1,0.1-0.2,0.1-0.2,0.2C256.5,443.9,256.6,444,256.6,444.1
	 M241.7,395.5c0.1-0.1,0.2-0.2,0.2-0.2c0-0.1-0.1-0.1-0.1-0.2c-0.1,0.1-0.2,0.1-0.2,0.2C241.5,395.3,241.6,395.4,241.7,395.5
	 M235.8,384.1c-0.1-0.1-0.2-0.2-0.2-0.3c-0.1,0.1-0.2,0.1-0.2,0.2c0,0.1,0.1,0.2,0.2,0.3C235.7,384.2,235.7,384.2,235.8,384.1
	 M235.5,426.2c-0.1,0.1-0.2,0.2-0.2,0.3c0,0,0.1,0.2,0.2,0.2c0.1,0,0.2-0.1,0.2-0.2C235.6,426.4,235.6,426.3,235.5,426.2
	 M257.7,426.3c-0.1,0.1-0.2,0.2-0.2,0.3c0.1,0.1,0.2,0.2,0.3,0.2c0,0,0.2-0.1,0.1-0.2C258,426.5,257.9,426.5,257.7,426.3
	 M254.6,435.7c-0.4-0.2-0.5-0.4-0.5-0.4c-0.1,0-0.2,0.2-0.2,0.3c0,0.1,0.1,0.2,0.2,0.2C254.2,435.9,254.4,435.8,254.6,435.7
	 M258.1,422.9c0.1-0.3,0.1-0.4,0.1-0.5c0-0.1-0.1-0.1-0.2-0.2c-0.1,0.1-0.2,0.2-0.2,0.3C257.9,422.6,258,422.7,258.1,422.9
	 M259.9,427.7c-0.1-0.4-0.1-0.4-0.5-0.4C259.5,427.6,259.5,427.6,259.9,427.7 M250.8,430.5c-0.2-0.1-0.3-0.2-0.5-0.2
	c-0.1,0-0.2,0.2-0.3,0.3c0.1,0.1,0.2,0.2,0.3,0.2C250.5,430.7,250.6,430.6,250.8,430.5 M253.4,422.1c-0.2-0.1-0.3-0.3-0.4-0.3
	c-0.1,0-0.2,0.1-0.4,0.2c0.1,0.1,0.2,0.2,0.3,0.3C253,422.3,253.1,422.2,253.4,422.1 M235.5,408.1c-0.1-0.3-0.1-0.5-0.2-0.7
	c0,0-0.2,0-0.2,0C234.9,407.7,234.9,407.9,235.5,408.1 M241.2,436.1c0.3-0.2,0.4-0.4,0.1-0.7c0,0-0.2-0.1-0.2,0
	C240.8,435.7,240.8,435.9,241.2,436.1 M257.8,407.9c-0.2-0.2-0.3-0.4-0.3-0.3c-0.1,0-0.3,0.2-0.4,0.3c0.1,0.1,0.2,0.3,0.3,0.3
	C257.5,408.1,257.6,408,257.8,407.9 M248.7,407.1c0-0.1-0.1-0.2-0.1-0.3c-0.2,0.1-0.7-0.1-0.8,0.6
	C248.1,407.3,248.4,407.2,248.7,407.1 M253.6,409.5c-0.3-0.2-0.4-0.3-0.5-0.3c-0.2,0.1-0.3,0.3-0.4,0.4c0.1,0.1,0.3,0.3,0.4,0.3
	C253.2,409.9,253.3,409.7,253.6,409.5 M256.2,405.6c-0.2,0.3-0.3,0.5-0.3,0.6c0,0.2,0.3,0.4,0.4,0.4c0.2,0,0.4-0.3,0.4-0.4
	C256.6,406,256.4,405.8,256.2,405.6 M230.6,403.2c-0.2,0.3-0.4,0.5-0.4,0.6c0,0.1,0.2,0.3,0.4,0.4c0.1-0.1,0.3-0.2,0.3-0.4
	C230.9,403.7,230.7,403.5,230.6,403.2 M256.7,445.4c-0.3-0.2-0.5-0.4-0.6-0.3c-0.2,0-0.3,0.3-0.4,0.4c0.1,0.1,0.3,0.3,0.4,0.3
	C256.3,445.8,256.4,445.6,256.7,445.4 M250.9,416.7c0.2-0.3,0.4-0.5,0.4-0.6c0-0.2-0.3-0.3-0.4-0.3c-0.1,0-0.3,0.2-0.5,0.3
	C250.5,416.3,250.6,416.4,250.9,416.7 M237.1,389.3c0.1,0,0.2,0,0.2,0c0.1-0.2,0.2-0.4,0.2-0.6c-0.1-0.2-0.3-0.5-0.5-0.6
	c-0.3,0-0.4,0.3-0.3,0.5C236.9,388.9,237,389.1,237.1,389.3 M263.9,452.7c0.2-0.3,0.4-0.5,0.5-0.8c0,0-0.3-0.3-0.4-0.3
	c-0.2,0.1-0.4,0.3-0.4,0.5C263.4,452.3,263.7,452.5,263.9,452.7 M238.1,434.1c0.4-0.4,0.4-0.8,0.3-1.2c0-0.1-0.3-0.3-0.3-0.2
	c-0.1,0.1-0.3,0.3-0.3,0.4C237.8,433.4,237.9,433.6,238.1,434.1 M258.9,425.6c0.8-0.4,1-0.5,0.9-0.8c-0.1-0.3-0.2-0.5-0.7-0.4
	C259,424.7,259,425.1,258.9,425.6 M258.6,428c-0.3,0.4-0.5,0.6-0.6,0.8c0,0,0.2,0.3,0.4,0.4c0.3,0,0.6-0.1,0.6-0.4
	C259,428.6,258.8,428.4,258.6,428 M253.2,398.5c0,0.1,0.1,0.2,0.1,0.3c0.3,0,0.6,0,0.9-0.1c0.2-0.1,0.2-0.4,0.3-0.6
	c-0.2-0.1-0.5-0.2-0.6-0.2C253.6,398,253.4,398.3,253.2,398.5 M258.3,437.1c0.6,0.3,1,0.1,1.3-0.1c0.1-0.1,0.2-0.4,0.2-0.5
	c-0.1-0.1-0.4-0.3-0.5-0.2C258.9,436.5,258.7,436.7,258.3,437.1 M252.5,419.1c-0.5,0.2-0.6,0.4-0.6,0.8c0,0.3,0.1,0.6,0.5,0.6
	c0.4,0,0.5-0.3,0.4-0.6C252.8,419.6,252.6,419.3,252.5,419.1 M244.2,382.7c0.3-0.4,0.4-1,0.2-1.4c0-0.1-0.2-0.3-0.3-0.3
	c-0.1,0-0.3,0.1-0.3,0.2C243.5,381.7,243.7,382.2,244.2,382.7 M234,419.9c0.2-0.4,0.4-0.6,0.5-0.9c0.1-0.4-0.2-0.7-0.5-0.7
	c-0.3,0-0.7,0.4-0.6,0.7C233.5,419.2,233.7,419.5,234,419.9 M245.2,384.7c-0.3,0.1-0.5,0.1-0.8,0.2c-0.3,0.1-0.6,0.3-0.4,0.7
	c0.1,0.3,0.6,0.4,0.9,0.2C245.2,385.5,245.5,385.2,245.2,384.7 M247.1,391.6c-0.1-0.1-0.3-0.3-0.5-0.4c-0.4-0.1-0.8,0.4-0.7,0.8
	c0,0.3,0.3,0.5,0.6,0.5C246.8,392.5,247.1,392.1,247.1,391.6 M240.6,383.3c0.2-0.2,0.4-0.4,0.6-0.5c0,0,0.1-0.1,0.1-0.1
	c0.2-0.3,0-0.8-0.3-0.7c-0.4,0.1-0.8,0.3-1,0.6C239.9,382.9,240.2,383.1,240.6,383.3 M256.3,437.6c0-0.1,0.1-0.2,0.1-0.3
	c-0.3-0.2-0.5-0.4-0.8-0.5c-0.2,0-0.5,0.2-0.7,0.3c-0.1,0.1-0.1,0.5,0,0.6c0.2,0.1,0.4,0.2,0.7,0.1
	C255.8,437.9,256,437.7,256.3,437.6 M250.8,406.5c-0.2-0.1-0.3-0.3-0.5-0.3c-0.4,0-1,0.6-0.9,0.9c0,0.2,0.2,0.4,0.4,0.5
	c0.1,0,0.4-0.1,0.5-0.3C250.6,407.1,250.7,406.8,250.8,406.5 M231.4,435.4c0,0.5,0.2,0.9,0.6,0.9c0.4,0,0.5-0.3,0.5-0.6
	c0-0.5-0.3-0.9-0.6-0.9C231.5,434.8,231.4,435,231.4,435.4 M249.1,439.3c0.8,0.2,1.6,0.3,2.3-0.5c-0.5-0.2-0.9-0.3-1.3-0.5
	C249.7,438.7,249.4,439,249.1,439.3 M226.6,447.9c0.1,0.1,0.2,0.3,0.3,0.3c0.6,0.1,1.1,0.2,1.6,0.5c0.1,0,0.3,0,0.3-0.1
	c0.1-0.1,0.1-0.3,0-0.4C228.5,447.7,227.3,447.5,226.6,447.9 M247.6,395.4c-0.1,0-0.2,0-0.3,0.1c0,0.6,0,1.3,0.1,1.9
	c0,0.2,0.4,0.3,0.5,0.4c0.1-0.2,0.3-0.3,0.3-0.5C248.4,396.5,247.9,396,247.6,395.4 M251.9,408.4c0.4-0.2,0.9-0.4,1.3-0.7
	c0.1-0.1,0.1-0.4,0.1-0.6c0-0.1-0.3-0.2-0.4-0.2c-0.5,0.2-0.9,0.4-1.3,0.6c-0.1,0.1-0.2,0.3-0.1,0.5
	C251.4,408.2,251.7,408.2,251.9,408.4 M238.2,393c0.5-0.3,0.4-0.7,0.3-1.1c-0.1-0.6-0.2-1.1-0.9-1.3
	C237.2,391.4,237.4,392.1,238.2,393 M256.8,425.9c-0.2-0.7-0.3-1.3-0.5-1.9c-0.1-0.3-0.4-0.5-0.7-0.3c-0.3,0.2-0.3,0.5-0.1,0.7
	c0.3,0.4,0.4,0.8,0.4,1.3c0,0.3,0,0.6,0.4,0.6C256.5,426.3,256.7,426,256.8,425.9 M227.8,438.2c0.2-0.2,0.4-0.4,0.6-0.6
	c0.2-0.1,0.4-0.3,0.6-0.3c0.4,0,0.6-0.2,0.6-0.5c0-0.2-0.1-0.6-0.3-0.7c-0.2-0.1-0.5,0-0.8,0.1c-0.3,0.2-0.6,0.5-0.8,0.8
	C227.3,437.4,227.3,437.5,227.8,438.2 M240.1,429.1c-0.3,0.4-0.4,0.8-0.1,1.2c0.3,0.4,0.3,0.9,0.4,1.3c0,0.4,0,0.9,0.3,1.2
	C241.3,431.9,241.1,430.4,240.1,429.1 M236.3,416.3c0.5-0.1,0.8-0.5,1-1c0.2-0.5,0-0.8-0.6-1c-0.6-0.1-1.2,0-1.7,0.4
	c-0.4,0.3-0.4,0.6,0,0.8C235.4,415.7,235.8,416,236.3,416.3 M257.7,451c-0.1-0.2,0-0.4-0.1-0.4c-0.5-0.5-0.5-1.1-0.5-1.7
	c0-0.2-0.1-0.5-0.2-0.7c-0.1-0.1-0.3-0.3-0.4-0.3c-0.2,0.1-0.3,0.3-0.3,0.5c0,0.3,0.1,0.6,0.2,0.9c0.1,0.5,0.2,0.9-0.5,1.1
	c-0.1,0-0.3,0.3-0.3,0.5c0,0.2,0.3,0.4,0.5,0.4C256.5,451.2,257.1,451.3,257.7,451 M254.3,433.5c0-0.1-0.1-0.2-0.1-0.3
	c-0.2-0.3-0.4-0.5-0.5-0.8c-0.2-0.7-0.5-1.2-1.4-0.8c-0.2,0.1-0.4-0.2-0.7-0.2c-0.2,0-0.6,0-0.6,0.1c-0.2,0.3-0.1,0.7,0.1,1.1
	c0.2,0.3,0.4,0.3,0.7,0.3c0.7-0.2,1-0.1,1.4,0.5c0.1,0.2,0.2,0.4,0.4,0.5C253.9,434.1,254.3,433.9,254.3,433.5 M231.9,402.7
	c0.3-0.1,0.6-0.1,0.8-0.3c0.5-0.4,1-0.8,1.6-1.1c0.5-0.2,0.5-0.7,0-1.1c-0.5-0.3-0.6-0.6-0.5-1.1c0-0.2,0.1-0.4,0-0.5
	c-0.1-0.2-0.3-0.3-0.5-0.4c-0.1,0-0.4,0.1-0.4,0.1c-0.1,0.7-0.6,0.9-1,1.2c-0.2,0.1-0.2,0.5-0.2,0.7
	C231.8,401.1,231.9,401.8,231.9,402.7 M240.4,397.7c0-0.1,0-0.2,0-0.3c0-1-0.4-1.1-1.2-0.6c-1,0.7-1.9,1.4-2.8,2.1
	c-0.2,0.1-0.4,0.3-0.4,0.5c-0.1,0.2-0.1,0.5,0.1,0.7c0.1,0.1,0.4,0.1,0.7,0.1c0.4-0.1,0.8-0.3,1.3-0.3c0.5,0,1-0.2,1.3-0.6
	c0.1-0.1,0.3-0.3,0.4-0.4C240.4,398.7,240.5,398.2,240.4,397.7 M249.2,412.5c0.4-0.7,0.6-1.2,0.8-1.6c0.3-0.5,0.6-1.2,1.4-0.9
	c0.1,0,0.3-0.2,0.4-0.4c-0.2-0.1-0.3-0.3-0.5-0.3c-0.2,0-0.5,0.1-0.7,0.1c-0.2-0.2-0.4-0.5-0.6-0.6c-0.3-0.2-0.7-0.5-1.1-0.3
	c-0.6,0.3-1.3,0.4-1.9,0.4c-0.7,0-0.8,0-0.9-0.6c-0.3-1.2-0.5-2.4-0.7-3.6c-0.2-1.4-0.5-2.7-0.7-4.1c-0.3-1.5-0.5-3-0.8-4.5
	c0-0.1,0-0.3,0-0.4c-0.1-0.3-0.2-0.7-0.6-0.6c-0.2,0-0.3,0.4-0.4,0.7c-0.1,0.2,0,0.5,0,0.8c-0.1,0.3-0.1,0.7-0.2,1
	c-0.2,0.8-0.9,1.3-1.5,1.8c-0.5,0.4-0.5,0.5,0,1.1c0.3-0.2,0.6-0.4,1-0.7c0.1,0.2,0.2,0.3,0.1,0.3c-0.5,1.4-0.7,2.9-1,4.4
	c0,0.2-0.2,0.5-0.4,0.8c-0.2-0.2-0.3-0.4-0.4-0.5c-0.1-0.1-0.2-0.2-0.4-0.4c-0.5,0.7-0.5,1.4,0,1.7c0.7,0.5,0.6,0.9,0.4,1.6
	c-0.1,0.5-0.1,1.1-0.2,1.6c-0.2,1.1-0.4,2.2-0.6,3.3c-0.1,0.7-0.2,1.3-0.3,2c0,0.3,0,0.5-0.1,0.8c-0.3,1.3-0.6,2.6-0.8,4
	c-0.2,0.9-0.4,1.9-0.5,2.8c-0.1,0.6-0.2,1.1-0.6,1.6c-0.4,0.5-0.7,1.2-0.4,1.8c0.3,0.7,0.2,1.4,0,2.1c-0.2,0.6,0,0.9,0.6,1
	c0.2,0.1,0.5,0,0.8,0c1.8,0,3.5-0.1,5.3-0.1c0.2,0,0.4,0.1,0.6,0.2c-0.2,1.2-1,2.1-1.3,3.2c0.5,0.1,0.8,0.1,1.1,0.2
	c0.3,0.1,0.6,0,0.7-0.3c0.3-0.5,0.5-1,0.1-1.7c-0.5-0.8-0.1-1.3,0.9-1.4c0.2,0,0.5,0,0.7-0.1c0.8-0.3,1.6-0.3,2.4-0.2
	c1,0.1,1.2-0.2,1-1.2c-0.3-1.6-0.6-3.2-0.9-4.7c-0.2-1.2-0.5-2.4-0.7-3.5c-0.1-0.6-0.2-1.2-0.3-1.8c-0.1-0.5,0.1-0.9,0.6-1.2
	c0.2-0.2,0.4-0.4,0.5-0.6c0.1-0.2,0-0.5-0.2-0.6c-0.1-0.1-0.4,0-0.6,0.1c-0.2,0.2-0.3,0.4-0.5,0.7c-0.4-0.8-0.5-1.4-0.7-2
	c-0.2-1-0.4-2-0.6-3c-0.1-0.5,0.4-1,0.8-1.1c0.3,0,0.6,0.3,0.7,0.9c0,0.1,0,0.3,0,0.4c0.1,0.2,0.2,0.5,0.3,0.5
	C248.8,411.4,249,411.8,249.2,412.5 M271.6,460.4c-0.7,0-1.3,0-1.8,0c-0.5,0-1.1,0-1.6,0c-0.9,0-1.8,0-2.7,0c-2.3,0-4.6,0.1-6.9,0.1
	c-0.6,0-1.3-0.1-1.9-0.1c-0.7,0-0.8-0.1-0.9-0.8c-0.3-1.4-0.5-2.8-0.8-4.2c-0.4-2-0.9-4.1-1.4-6.1c-0.4-1.9-0.8-3.8-1.2-5.8
	c-0.2-0.8-0.4-1.7-0.6-2.5c-0.1-0.4-0.4-0.6-0.8-0.6c-0.7,0-1.4-0.1-2.1-0.1c-0.5,0-1,0.1-1.5,0.1c-0.6,0.1-0.8,0-1-0.6
	c-0.4-0.8-0.4-0.8-1.1-0.4c-0.4,0.2-0.8,0.5-1.3,0.7c-0.8,0.4-1.1,0.3-1.6-0.5c0-0.1-0.1-0.1-0.3-0.3c-0.2,0.2-0.4,0.3-0.5,0.5
	c-0.2,0.5-0.5,0.6-1,0.5c-0.2,0-0.4,0-0.7,0c-0.4,0-0.7-0.2-0.8-0.6c-0.2-0.7-0.6-1.4-0.4-2.1c0-0.1,0-0.3-0.1-0.5
	c-0.1-0.2-0.3-0.4-0.5-0.4c-0.2,0-0.4,0.3-0.4,0.4c0,0.4,0.1,0.7,0.2,1.1c0.1,0.4,0.2,0.9,0.3,1.3c0.1,0.4-0.1,0.6-0.6,0.6
	c-0.7,0-1.4,0-2.1,0c-1.1,0.1-1.3,0.3-1.5,1.3c-0.3,1.6-0.6,3.2-0.9,4.9c-0.1,0.3-0.1,0.6-0.3,0.9c-0.3,0.6-0.4,0.6-1,0.5
	c-0.2,0-0.4-0.1-0.7-0.1c-0.4,0-0.8,0.2-1,0.6c-0.2,0.3,0,0.9,0.3,1.1c0.4,0.3,0.7,0.3,1.1,0.1c0.3-0.2,0.6-0.3,0.9-0.4
	c0.1,0.2,0.2,0.2,0.2,0.3c-0.3,1.2-0.5,2.5-0.9,3.7c-0.1,0.6-0.5,1.1-0.2,1.7c0,0,0,0.1,0,0.2c-0.2,1.1-0.4,2.2-0.7,3.3
	c-0.1,0.4-0.2,0.7-0.2,1.1c-0.1,0.9-0.3,1-1.1,1c-1.3,0-2.6-0.1-3.9-0.1c-3.1-0.1-6.2-0.1-9.3-0.2c-0.3,0-0.6,0-1-0.1
	c0.2-0.8,0.2-1.6,0.5-2.3c0.2-0.6,0.2-1.2,0.4-1.7c0.4-1.3,0.4-2.8,1.1-4c0.2-0.2,0.2-0.6,0.2-0.9c0-1.4,0.2-2.2,0.8-3.4
	c0.6,0,1.2-0.1,1.9-0.1c0.1,0,0.2-0.1,0.2-0.1c-0.1-0.6-0.5-0.7-1-0.8c-0.9-0.1-0.9-0.2-0.8-1c0.1-1.5,0.5-2.9,0.9-4.3
	c0.3-1,0.4-2.1,0.7-3.1c0.2-0.7,0.3-1.5,0.5-2.2c0.3-1.1,0.5-2.2,0.8-3.3c0.2-1.1,0.5-2.2,0.7-3.2c0.2-0.9,0.4-1.8,0.6-2.8
	c0.3-1.4,0.6-2.8,0.9-4.1c0.2-1,0.5-1.9,0.8-2.9c0.1-0.5,0.2-0.9,0.2-1.4c0.1-0.9,0.6-1.2,1.5-0.8c0.1,0,0.2,0.1,0.3,0.1
	c0.2,0,0.6,0.2,0.7,0.1c0.2-0.2,0.2-0.5,0.2-0.8c0-0.2-0.1-0.5-0.1-0.7c0.1-0.2,0.2-0.6,0.4-0.7c0.2-0.1,0.5,0.1,0.8,0.1
	c0,0,0,0,0.1,0.1c0.2,0.2,0.4,0.5,0.7,0.3c0.3-0.2,0.1-0.5,0.2-0.8c0-0.4,0.2-0.8,0.3-1.2c-0.2-0.3-0.5-0.3-0.8,0
	c-0.2,0.1-0.3,0.4-0.5,0.5c-0.2,0.1-0.4,0.2-0.6,0.2c-0.1,0-0.2-0.3-0.2-0.5c0.3-0.7,0-1-0.7-1.2c-0.4-0.1-0.5-0.5-0.5-0.9
	c0.3-1.9,0.5-3.8,1.2-5.5c0-0.1,0.1-0.1,0.1-0.2c0-1.1,0.3-2.1,0.5-3.1c0.3-1.2,0.6-2.4,0.8-3.6c0-0.2,0.1-0.3,0.1-0.5
	c0.3-2.2,1-4.2,1.4-6.4c0.2-1,0.4-2.1,0.6-3.2c0.2-1,0.4-2,0.6-3c0-0.1,0-0.2,0.1-0.3c0.7-0.9,0.7-1.9,0.8-2.9c0.1-1,0.4-2,0.6-3.1
	c0.3,0,0.6-0.1,0.9-0.1c6,0,11.9,0,17.9,0c0.9,0,0.9,0,1.1,0.9c0.3,1.3,0.6,2.5,0.9,3.8c0.4,1.7,0.8,3.4,1.2,5.1
	c0.4,1.8,0.9,3.7,1.3,5.5c0.4,1.8,0.8,3.6,1.2,5.4c0.3,1.1,0.5,2.3,0.8,3.4c0.1,0.2,0.1,0.5,0.2,0.7c0.2,0.7,0.5,1.4,0,2.1
	c0.7,0.4,0.8,1,0.9,1.6c0.2,1.1,0.5,2.1,0.8,3.2c0.2,0.8,0.4,1.6,0.6,2.4c0.4,1.8,0.8,3.6,1.2,5.4c0.4,1.6,0.8,3.3,1.1,4.9
	c0.3,1.3,0.6,2.5,0.9,3.8c0.2,1,0.5,2,0.7,2.9c0.2,1,0.5,1.9,0.7,2.9c0.2,1,0.4,2,0.6,3.1c0.2,0.9,0.4,1.7,0.6,2.6
	c0.2,0.9,0.6,1.7-0.4,2.3c0.4,0.4,0.4,0.4,1,0.4c0.2,0.7,0.4,1.3,0.5,2c0.4,1.5,0.7,3.1,1.1,4.6c0.1,0.6,0.1,0.7-0.5,0.9
	c-0.3,0.1-0.7,0.2-1,0.3c-0.2,0.1-0.5,0.4-0.4,0.5c0.1,0.2,0.3,0.4,0.6,0.5c0.1,0.1,0.3,0,0.4,0c0.6-0.3,1.1,0.1,1.3,0.6
	c0.3,0.5,0.5,1.1,0.7,1.7c0.3,1,0.4,2.1,0.6,3.1c0.2,0.9,0.4,1.8,0.6,2.7C271.5,459.9,271.5,460.1,271.6,460.4"/>
<path class="st0" d="M335.6,438.5c-0.1,0.1-0.1,0.2-0.2,0.2c0,0,0.1,0.1,0.1,0.2c0.1,0,0.2-0.1,0.2-0.1
	C335.7,438.7,335.7,438.7,335.6,438.5 M334.9,434.8c-0.1-0.1-0.2-0.2-0.2-0.2c-0.1,0-0.1,0.1-0.2,0.2c0.1,0.1,0.2,0.1,0.2,0.2
	C334.8,435,334.8,434.9,334.9,434.8 M358.8,422.4c0.1-0.1,0.2-0.2,0.3-0.3c-0.1-0.1-0.2-0.2-0.3-0.3c-0.1,0-0.2,0.1-0.3,0.2
	C358.6,422.1,358.7,422.2,358.8,422.4 M341.5,384.4c0.1,0,0.2,0,0.3,0c0.2-0.3,0.1-0.5-0.4-0.8C341.4,383.9,341.4,384.1,341.5,384.4
	 M371,401.9c-0.2-0.1-0.3-0.2-0.5-0.2s-0.2,0.2-0.3,0.3c0.1,0.1,0.2,0.2,0.3,0.2C370.7,402.2,370.8,402.1,371,401.9 M327.1,389.1
	c0.2-0.5,0.2-0.5-0.2-0.8c0,0.2,0,0.3,0,0.5C326.9,388.9,327,389,327.1,389.1 M365.3,420.8c-0.2-0.1-0.3-0.2-0.4-0.3
	c-0.1,0.1-0.2,0.3-0.2,0.3c0,0.1,0.2,0.2,0.3,0.4C365.1,421.1,365.2,421,365.3,420.8 M358.6,409.5c0.2,0.2,0.3,0.4,0.4,0.3
	c0.2-0.1,0.3-0.2,0.5-0.3c-0.1-0.1-0.2-0.3-0.3-0.3C358.9,409.3,358.8,409.4,358.6,409.5 M354.7,390.8c0.1-0.3,0.3-0.5,0.3-0.6
	c0-0.1-0.3-0.2-0.4-0.3c-0.1,0.1-0.3,0.3-0.2,0.4C354.3,390.5,354.5,390.6,354.7,390.8 M349.1,424.2c0.2-0.2,0.4-0.3,0.4-0.4
	c0-0.2-0.2-0.3-0.3-0.4c-0.1,0.1-0.3,0.2-0.3,0.4C348.8,423.8,349,424,349.1,424.2 M337,403.9c-0.2-0.2-0.3-0.4-0.4-0.5
	c-0.1,0.1-0.4,0.3-0.4,0.4c0,0.2,0.2,0.4,0.3,0.5C336.6,404.3,336.8,404.1,337,403.9 M362.8,406.2c-0.3-0.2-0.4-0.4-0.5-0.4
	c-0.2,0-0.4,0.1-0.5,0.3c-0.1,0.3,0.1,0.5,0.4,0.5C362.4,406.5,362.6,406.3,362.8,406.2 M328.2,425.9c-0.2,0.3-0.4,0.5-0.4,0.7
	c0,0.3,0.1,0.6,0.5,0.6c0.2,0,0.5-0.3,0.4-0.4C328.6,426.6,328.4,426.3,328.2,425.9 M361.5,385.1c0.3-0.3,0.5-0.5,0.6-0.7
	c0.1-0.3-0.1-0.5-0.4-0.5c-0.3,0-0.6,0.1-0.6,0.5C361.2,384.5,361.4,384.7,361.5,385.1 M358.5,420.5c0.4-0.7,0.4-0.9,0-1.5
	C358,419.7,358,419.8,358.5,420.5 M343.8,388.9c0-0.5-0.2-0.8-0.6-0.8c-0.1,0-0.3,0.2-0.4,0.4c0,0.4,0.2,0.7,0.6,0.7
	C343.5,389.2,343.7,389,343.8,388.9 M338.5,384.3c0.1,0,0.2,0,0.2,0c0.2-0.4,0.3-0.8,0.1-1.2c-0.1-0.1-0.3-0.2-0.4-0.2
	c-0.1,0-0.3,0.2-0.3,0.3C338.3,383.5,338.4,383.9,338.5,384.3 M328.6,396.8c0.2,0.5,0.4,0.9,0.1,1.3c0,0,0.1,0.3,0.1,0.3
	c0.1,0,0.3,0,0.3-0.1c0.1-0.3,0.1-0.7,0.1-1C329.2,397.1,329.1,396.8,328.6,396.8 M359.4,399c0.3-0.2,0.7-0.3,1-0.5
	c0.1-0.1,0.2-0.3,0.1-0.4c0-0.1-0.2-0.2-0.3-0.3C359.6,397.7,359.2,398.2,359.4,399 M340.3,418.3c-0.5,0-0.7,0.3-0.7,0.7
	c0,0.3,0.2,0.6,0.5,0.5c0.4,0,0.6-0.3,0.5-0.6C340.6,418.7,340.4,418.5,340.3,418.3 M338.3,436.2c0.1-0.1,0.3-0.3,0.3-0.6
	c0.1-0.4-0.3-0.9-0.6-0.9c-0.4,0-0.5,0.3-0.5,0.7C337.6,435.9,337.8,436.2,338.3,436.2 M349.7,385c0,0.5,0.2,0.8,0.7,0.9
	c0.5,0,0.8-0.2,1-0.6c0.1-0.1,0-0.4,0-0.5c-0.1-0.1-0.3-0.2-0.5-0.1C350.5,384.7,350.1,384.9,349.7,385 M333.3,447.5
	c-0.2,0.1-0.3,0.2-0.5,0.4c0.1,0.2,0.3,0.4,0.5,0.5c0.3,0.2,0.7,0.2,1,0.4c0.3,0.1,0.5,0.2,0.6-0.1c0.2-0.3,0.1-0.5-0.2-0.6
	C334.3,447.8,333.8,447.7,333.3,447.5 M347.6,382.1c-0.6-0.4-1-0.1-1.4,0.2c-0.3,0.2-0.4,0.5-0.1,0.8c0.2,0.3,0.5,0.3,0.8,0.1
	C347.3,382.9,347.6,382.6,347.6,382.1 M334.5,437.3c0.2,0,0.4,0,0.5,0c0.4,0,0.6-0.2,0.5-0.6c-0.1-0.5-0.5-0.8-0.9-0.6
	c-0.5,0.3-0.9,0.7-1.2,1.1c-0.3,0.3-0.1,0.7,0.2,0.9c0.4,0.2,0.6,0,0.7-0.4C334.4,437.6,334.5,437.4,334.5,437.3 M356.5,415.5
	c0,0.2-0.1,0.4,0,0.6c0,0.1,0.3,0.2,0.4,0.2c0.1,0,0.3-0.2,0.3-0.3c-0.2-0.4,0-0.8,0.1-1.2c0.1-0.2-0.1-0.6-0.3-0.8
	c-0.4-0.4-0.8-0.4-1.5-0.1C355.5,414.7,356.1,415.1,356.5,415.5 M337.6,448c-0.2,0-0.4,0-0.6,0.1c-0.5,0.2-0.7,0.5-0.7,1
	c0.1,0.4,0.4,0.7,0.9,0.6c0.6-0.1,1.2-0.4,1.7-0.8c0.4-0.3,0.2-0.7-0.3-0.8C338.4,448,338,448,337.6,448 M354.8,424.3
	c-0.1-0.3-0.2-0.6-0.3-1c-0.1-0.3-0.2-0.6-0.1-0.8c0.2-0.7-0.1-1.2-0.5-1.6c-0.1-0.1-0.3-0.2-0.5-0.3c-0.1,0.2-0.2,0.4-0.2,0.6
	c0.3,1.2,0.6,2.5,0.9,3.7c0,0.1,0.2,0.3,0.3,0.3c0.2,0,0.3-0.2,0.4-0.3C354.8,424.7,354.8,424.5,354.8,424.3 M331.7,408.9
	c0.4-0.2,0.6-0.2,0.9-0.4c0.8-0.5,1-1.4,1.3-2.2c0.1-0.4-0.3-0.7-0.7-0.5c-0.8,0.4-1.5,0.8-2.2,1.3c-0.2,0.2-0.4,0.8-0.3,1
	C330.9,408.4,331.3,408.6,331.7,408.9 M352.8,419.1c0.6-0.4,0.6-0.8,0.5-1.2c-0.2-0.9,0.2-1.4,0.9-1.9c0.2-0.1,0.4-0.2,0.5-0.4
	c0.2-0.2,0.4-0.6,0-0.8c-0.3-0.2-0.5,0-0.7,0.2c-0.1,0.1-0.2,0.3-0.4,0.4c-0.1,0.1-0.3,0.3-0.4,0.3c-0.7-0.1-1,0.3-1.2,0.8
	c-0.3-0.1-0.5-0.3-0.8-0.4c-0.1,0.4-0.1,0.8-0.2,1.1c-0.1,0.4,0.1,0.7,0.5,0.7c0.5,0,0.7,0.2,0.9,0.6
	C352.6,418.7,352.7,418.9,352.8,419.1 M373.2,403.5c-0.3-0.1-0.4-0.1-0.6-0.1c-0.3,0.1-0.5,0.2-0.8,0.3c-0.5,0.1-0.9,0.1-1.4,0.1
	c-0.4,0-0.4-0.4-0.6-0.6c-0.1-0.1-0.4-0.2-0.6-0.1c-0.2,0.1-0.4,0.4-0.6,0.6c-0.6,0.6-1.1,1.2-1.7,1.7c-0.6,0.6-1.2,1.1-1.8,1.6
	c-0.1,0.1-0.2,0.4-0.2,0.5c0,0.1,0.3,0.3,0.4,0.2c0.5-0.1,0.9-0.1,1.3-0.4c0.6-0.4,1.1-0.9,1.8-1.2c0.6-0.3,1.1-0.8,1.9-0.4
	c0.1,0.1,0.3-0.1,0.5-0.1c-0.2-0.4-0.3-0.6-0.5-1c0.8-0.4,1.6-0.2,2.4-0.1C372.9,404.1,373,403.8,373.2,403.5 M348,417.2
	c1.1-0.2,0.8-1.1,1-1.6c1.1-0.2,2.1-0.5,3.2-0.7c1.2-0.1,2.2-0.8,3.2-1.4c1-0.7,1.9-1.6,2.4-2.8c0.2-0.5,0.6-0.9,0.7-1.4
	c0.1-0.6,0.3-1,0.7-1.4c0.3-0.3,0.4-0.6,0.2-1c-0.1-0.3-0.2-0.5-0.2-0.8c0-1.5,0.1-3.1,0.1-4.6c0-0.3-0.1-0.6-0.1-0.9
	c-0.1-0.5-0.1-1-0.1-1.5c0.1-0.5-0.1-0.9-0.4-1.4c-0.7-0.9-1.3-1.9-1.5-3c-0.4-0.2-0.7-0.4-1-0.6c-0.8-0.5-1.6-1-2.3-1.6
	c-0.8-0.7-1.6-0.8-2.5-0.8c-0.7,0-1.3-0.2-2-0.2c-1.2,0-2.5,0-3.7,0c-0.6,0-1.1,0-1.5-0.7c-0.4,0.7-1,0.7-1.6,0.7
	c-0.4,0-0.8,0-1.2,0c-0.8,0-0.8,0.1-0.8,0.8c0,2.4,0,4.7,0,7.1c0,0.3,0.1,0.6-0.3,0.9c-0.3-0.3-0.3-0.7-0.3-1.1
	c0-0.6-0.3-0.6-0.7-0.5c-0.2,0.8-0.2,0.7-0.8,1.1c-0.2,0.1-0.5,0.3-0.6,0.4c0.2,0.9,0.3,1.8,0.5,2.6c0.8,0.1,1.1-1,2.1-1.1
	c0,0.3,0.1,0.6,0.1,0.9c0,2.4,0,4.8,0,7.1c0,0.3-0.1,0.7-0.3,1c-0.2,0.3-0.2,0.6,0,0.9c0.2,0.4,0.3,0.9,0.3,1.4c0,0.7,0,1.5,0,2.2
	c0,0.4,0.1,0.7,0.7,0.7c0.3,0,0.7,0.2,0.9,0.3c0.4,0.3,0.7,0.3,1,0c0.3-0.3,0.6-0.4,1-0.3c0.3,0,0.6,0,0.9,0c0.4,0,0.8,0,1.1,0.1
	C346.7,416,347.5,416.3,348,417.2 M327.4,414.8c0.7,0.2,1.3,0.3,2,0.5c0.6,0.2,1.2,0.4,1.5,1c0.3,0.6,0.7,1,1.3,1.1
	c0.3,0,0.5,0.3,0.8,0.4c0.5,0.1,0.7-0.1,0.8-0.5c0-0.3-0.1-0.7-0.1-1c0-0.7,0.4-0.9,1-0.6c0.3,0.2,0.6,0.3,0.9,0.5
	c0.1-0.2,0.2-0.4,0.2-0.5c-0.1-0.5,0-0.9,0.3-1.2c0.1-0.1,0.1-0.4,0-0.5c-0.1-0.1-0.4-0.2-0.5-0.1c-0.3,0.1-0.5,0.3-0.8,0.5
	c-0.2,0.2-0.5,0.4-0.7,0.6c-0.1,0-0.1-0.1-0.2-0.1c0-0.3,0-0.5,0-0.8c0.1-0.4-0.1-0.8-0.5-0.9c-0.6-0.1-0.7-0.5-0.6-1.1
	c0-0.9-0.8-1.5-1.5-1c-0.6,0.4-1.2,0.3-1.8,0.3c-0.7,0-1.2-0.4-1.5-0.9c-0.1-0.1-0.2-0.2-0.4-0.3c-0.2,0.2-0.4,0.3-0.7,0.5
	c-0.2,0.1-0.5,0.2-0.7,0.3c-0.1-0.2-0.2-0.5-0.2-0.7c0-2,0-4.1,0-6.1c0-3.5,0-7,0-10.6c0-2,0.1-4,0.1-6c0-2,0-3.9-0.1-5.9
	c0-1,0-1.1,1-1.1c3.3,0,6.6,0,9.9,0c0.5,0,1,0.2,1.5,0.3c0.4-0.1,0.9-0.3,1.4-0.3c3,0,6.1,0,9.1-0.1c0.3,0,0.6,0.1,1,0.1
	c0,0.3-0.1,0.5-0.1,0.7c0,0.3,0,0.6,0,0.9c0,0.2,0.3,0.3,0.4,0.4c0.1-0.1,0.3-0.3,0.3-0.4c0-0.2,0-0.5,0-0.8c0-0.2-0.1-0.5-0.2-0.8
	c0.2-0.1,0.4-0.2,0.7-0.2c1.8,0,3.7,0,5.5,0.1c1,0,1.9,0.3,2.9,0.5c1.2,0.3,2.4,0.6,3.5,1.3c0.4,0.3,0.8,0.5,1.4,0.9
	c1-0.4,1.8,0.4,2.6,1c2.5,1.9,4.2,4.5,5.6,7.3c0.6,1.1,0.9,2.4,1,3.6c0.1,0.9,0.3,1.7,0.4,2.6c0.1,0.9-0.7,1.8-1.6,1.9
	c-0.1,0-0.3,0-0.4,0c-0.2,0.1-0.4,0.2-0.4,0.3c0,0.1,0,0.4,0.2,0.5c0.5,0.3,1,0.8,1.7,0.7c0.6-0.1,0.8,0.1,0.9,0.8
	c0,0.1,0,0.2,0,0.3c-0.1,1.6-0.1,3.2-0.3,4.7c-0.2,1.3-0.5,2.5-0.8,3.8c-0.4,1.5-1,3-1.7,4.4c-1.3,2.9-3.1,5.4-5.8,7.1
	c-0.9,0.6-1.8,1.1-2.7,1.6c-0.4-0.1-0.7-0.4-1-0.3c-0.2,0.1-0.4,0.5-0.6,0.9c-1.2,0.4-2.6,0.8-4.1,1.1c-3.2,0.7-6.5,0.3-9.8,0.4
	c-1.1,0-1.6-0.4-1.8-1.5c0-0.3,0.1-0.6,0.3-0.9c0.1-0.2,0.4-0.3,0.5-0.6c0.1-0.2,0-0.5,0-0.7c-0.2,0-0.5,0-0.7,0.1
	c-0.2,0.2-0.4,0.5-0.5,0.8c-0.1,0.1-0.2,0.2-0.3,0.4c-0.2-0.2-0.3-0.4-0.5-0.6c-1,0.5-1.3,1.3-0.9,2.7c-0.4,0.3-0.9,0.1-1.3,0.1
	c-1,0-1.1,0.1-1.1,1.1c0,5.7,0,11.4,0,17.1c0,0.9-0.1,1.7-0.1,2.6c0,0.5-0.1,1-0.6,1.2c-0.4,0.2-0.4,0.5-0.3,0.9
	c0.1,0.5,0.2,1.1,0.6,1.6c0.2,0.2,0.3,0.6,0.3,1c0,2.6,0,5.3,0,7.9c0,0.9-0.2,1.1-1.1,1c-2.6,0-5.2,0-7.8,0c-1.3,0-2.5,0-3.8,0.1
	c-0.4,0-0.8,0-1.2-0.1c-0.5-0.1-0.7-0.3-0.7-0.8c0-2.6,0-5.1,0-7.7c0-0.9,0-1.8,0-2.8c0-0.7-0.2-1.4,0.6-1.7c0-0.2,0-0.3-0.1-0.3
	c-0.7-0.5-0.8-1.2-0.8-1.9c0-2.8,0-5.6,0-8.4c0-0.6,0.4-0.9,0.7-1.2c0-0.1,0-0.2,0-0.3c-0.6-1-0.6-2-0.6-3.1c0-3.1,0-6.3,0-9.4
	c0-3.2,0-6.3,0-9.5c0-0.7,0.2-1.2,0.9-1.4c0.3-0.1,0.7-0.1,0.9,0c0.5,0.3,1,0.3,1.3,0.8c0.2,0.3,0.5,0.2,0.8,0
	c0.1-0.1,0.2-0.3,0.3-0.3c0.2,0,0.4,0,0.6,0.1c0.2,0.2,0.2,0.5,0,0.6c-0.5,0.3-0.9,0.5-1.4,0.7c-0.6,0.2-1.2,0.3-1.8,0.5
	C327.4,414.6,327.4,414.7,327.4,414.8"/>
<path class="st0" d="M284.6,438.8c-0.2-0.1-0.3-0.2-0.4-0.2c0,0.1-0.1,0.1-0.1,0.2c0,0.1,0.1,0.2,0.1,0.2
	C284.4,439,284.5,438.9,284.6,438.8 M307.8,422.3c0-0.1,0-0.2,0-0.2c-0.2-0.3-0.4-0.3-0.7,0.1C307.4,422.2,307.6,422.2,307.8,422.3
	 M275.6,389c0.4-0.2,0.4-0.4,0-0.8V389z M290.2,383.6c-0.2,0.4-0.2,0.6,0.2,0.8C290.6,384,290.6,383.8,290.2,383.6 M307.7,409.2
	c-0.1,0.2-0.3,0.3-0.3,0.5c0,0.1,0.2,0.3,0.3,0.2c0.1,0,0.3-0.2,0.4-0.3C308,409.5,307.9,409.3,307.7,409.2 M319.3,402.4
	c0.1-0.2,0.3-0.3,0.3-0.4c0-0.1-0.2-0.3-0.3-0.3c-0.1,0-0.3,0.2-0.3,0.3C319,402.1,319.1,402.2,319.3,402.4 M313.7,421.4
	c0.1-0.3,0.3-0.4,0.3-0.6c0-0.1-0.1-0.2-0.2-0.3c-0.1,0.1-0.3,0.2-0.3,0.4C313.4,420.9,313.5,421.1,313.7,421.4 M303.3,389.8
	c-0.2,0.2-0.3,0.3-0.3,0.5c0,0.1,0.2,0.3,0.3,0.4c0.1-0.1,0.3-0.3,0.4-0.4C303.7,390.2,303.5,390,303.3,389.8 M297.9,424.3
	c0.1-0.3,0.3-0.5,0.3-0.6c0-0.1-0.3-0.2-0.4-0.3c-0.1,0.1-0.3,0.3-0.3,0.4C297.5,423.9,297.7,424,297.9,424.3 M284.8,403.8
	c0.2,0.2,0.3,0.4,0.5,0.4c0.1,0,0.3-0.2,0.4-0.3c0.1-0.3-0.1-0.5-0.4-0.5C285.1,403.4,285,403.6,284.8,403.8 M310.9,405.5
	c-0.2,0.2-0.4,0.4-0.4,0.5c0,0.2,0.2,0.4,0.4,0.4c0.3,0.1,0.5-0.1,0.5-0.4C311.3,405.9,311.1,405.8,310.9,405.5 M277.3,396.7
	c0.1,0.4,0.2,0.7,0.2,1c0,0.3-0.4,0.6,0.1,0.8C278.1,397.7,278,397.2,277.3,396.7 M277.1,427.2c0.1-0.1,0.3-0.2,0.3-0.4
	c0.1-0.4-0.2-0.6-0.5-0.7c-0.1,0-0.4,0.2-0.4,0.3C276.4,426.9,276.6,427.2,277.1,427.2 M291.7,388.1c-0.2,0.6-0.1,1,0.4,1.1
	c0.1,0,0.4-0.1,0.4-0.2C292.6,388.5,292.3,388.2,291.7,388.1 M307.2,418.9c-0.5,0.9-0.5,1,0.1,1.5
	C307.6,419.9,307.6,419.5,307.2,418.9 M310.5,383.7c-0.3,0.3-0.5,0.5-0.6,0.7c-0.1,0.3,0.1,0.5,0.4,0.5c0.3,0,0.6-0.1,0.6-0.5
	C310.8,384.2,310.6,384,310.5,383.7 M287.3,384.4c0.4-0.5,0.4-0.9,0.3-1.3c-0.1-0.2-0.3-0.2-0.4-0.4c-0.1,0.2-0.3,0.4-0.2,0.5
	C287,383.6,287.1,383.9,287.3,384.4 M308.1,398.9c0.3-0.1,0.6-0.2,0.8-0.3c0.2-0.1,0.4-0.4,0.3-0.6c-0.1-0.3-0.5-0.3-0.7-0.2
	C308.1,398.1,307.7,398.4,308.1,398.9 M288.8,419.8c0.3-0.4,0.5-0.6,0.6-0.9c0.1-0.3-0.2-0.5-0.5-0.6c-0.3,0-0.6,0.3-0.6,0.6
	C288.4,419.2,288.6,419.4,288.8,419.8 M287.5,435.7c-0.3-0.4-0.5-0.8-0.8-0.9c-0.4-0.1-0.5,0.3-0.5,0.6c0,0.4,0.1,0.7,0.5,0.7
	C287,436.2,287.2,435.9,287.5,435.7 M300.4,385c-0.4-0.2-0.6-0.4-0.7-0.4c-0.3,0-0.7,0.2-1,0.3c-0.3,0.1-0.3,0.4-0.1,0.6
	c0.2,0.3,0.6,0.4,0.9,0.2C299.8,385.7,300,385.4,300.4,385 M282,447.5c-0.2,0.1-0.4,0.2-0.5,0.3c-0.1,0.3,0.1,0.4,0.4,0.5
	c0.3,0.1,0.7,0.2,1,0.4c0.3,0.1,0.5,0.2,0.6-0.1c0.1-0.2,0-0.5-0.2-0.6C283,447.8,282.5,447.7,282,447.5 M296.3,382.1
	c-0.7-0.3-0.8-0.3-1.4,0.2c-0.3,0.3-0.4,0.5-0.1,0.8c0.3,0.3,0.6,0.3,0.8,0C296,382.9,296.3,382.6,296.3,382.1 M283.2,437.3
	c0.2,0,0.4,0,0.5,0c0.2-0.1,0.5-0.2,0.5-0.4c0-0.2-0.1-0.5-0.3-0.6c-0.1-0.1-0.5-0.2-0.7-0.1c-0.4,0.3-0.9,0.7-1.2,1.1
	c-0.2,0.3-0.1,0.7,0.3,0.8c0.4,0.1,0.5-0.1,0.6-0.4C283.1,437.6,283.2,437.4,283.2,437.3 M304.2,414c0.1,0.7,0.6,1.1,1.1,1.6
	c-0.1,0.1-0.1,0.2-0.1,0.4c-0.1,0.3,0.1,0.5,0.4,0.5c0.3,0,0.5-0.3,0.3-0.5c-0.2-0.3-0.1-0.5,0.1-0.8c0.2-0.3,0.1-0.7-0.1-1
	C305.5,413.7,305,413.6,304.2,414 M288.1,448.4c-1-0.4-1.7-0.5-2.5-0.2c-0.4,0.1-0.6,0.5-0.5,0.9c0,0.4,0.4,0.6,0.7,0.6
	c0.6,0.1,1.1-0.3,1.6-0.5C287.6,449,287.7,448.7,288.1,448.4 M302.2,420.5c-0.1,0-0.2,0-0.3,0c0,0.3-0.1,0.6-0.1,0.8
	c0.2,1.1,0.5,2.2,0.8,3.3c0,0.2,0.3,0.3,0.4,0.4c0.1-0.2,0.3-0.3,0.3-0.5c0-0.4-0.1-0.9-0.2-1.3c-0.1-0.3-0.2-0.6-0.2-0.8
	C303.4,421.5,302.7,421.1,302.2,420.5 M280.5,408.8c0.5-0.1,1-0.4,1.3-0.9c0.3-0.4,0.5-0.9,0.7-1.4c0.1-0.2,0.1-0.5,0-0.6
	c-0.2-0.1-0.5-0.2-0.7-0.1c-0.7,0.4-1.5,0.8-2.1,1.3c-0.2,0.2-0.4,0.7-0.3,1C279.5,408.5,280,408.7,280.5,408.8 M301.7,419
	c0.5-0.3,0.4-0.7,0.3-1.1c-0.2-0.8,0.2-1.4,0.9-1.8c0.2-0.2,0.5-0.3,0.6-0.5c0.1-0.2,0.1-0.5,0-0.7c-0.2-0.3-0.5-0.1-0.7,0.1
	c-0.2,0.2-0.3,0.4-0.4,0.5c-0.1,0.1-0.3,0.3-0.4,0.3c-0.7-0.1-1,0.3-1.2,0.8c-0.3-0.1-0.6-0.2-0.9-0.4c-0.1,0.4-0.1,0.8-0.1,1.1
	c0,0.3,0.1,0.6,0.4,0.6c0.5,0,0.7,0.3,1,0.6C301.3,418.7,301.5,418.8,301.7,419 M321.4,404.5c0.2-0.3,0.4-0.7,0.6-1
	c-0.6-0.2-0.6-0.2-1.3,0.1c-1,0.4-1.6,0.2-2.2-0.6c0,0-0.1-0.1-0.3-0.1c-0.2,0.2-0.5,0.4-0.7,0.6c-1,1.4-2.4,2.2-3.6,3.3
	c-0.2,0.2-0.4,0.4-0.2,0.8c0.7,0.2,1.3,0.1,1.9-0.4c0.7-0.5,1.4-0.9,2.1-1.4c0.4-0.3,0.8-0.4,1.3-0.1c0.1,0.1,0.3-0.1,0.5-0.1
	c-0.2-0.4-0.3-0.7-0.4-1.1C319.9,404.3,320.5,404.2,321.4,404.5 M305.7,394.5c-0.2-0.1-0.5-0.2-0.8-0.4c-0.4-0.3-0.8-0.7-1.2-0.9
	c-1.2-0.6-2.1-2-3.7-1.7c-0.1,0-0.1,0-0.2,0c-0.6-0.1-1.2-0.2-1.8-0.2c-1.1,0-2.3,0-3.4,0c-0.7,0-1.5,0.1-2-0.6
	c-0.4,0.6-0.8,0.6-1.4,0.6c-0.5,0-1,0-1.5,0c-0.7,0-0.8,0.1-0.8,0.8c0,2.4,0,4.7,0,7.1c0,0.3,0.1,0.6-0.4,0.9
	c-0.1-0.4-0.2-0.8-0.2-1.1c0-0.6-0.3-0.6-0.8-0.5c0.3,1.2-1.1,0.8-1.3,1.4c0.2,0.9,0.3,1.7,0.5,2.6c0.9,0.2,1.1-1.1,2.1-1
	c0,0.4,0.1,0.6,0.1,0.9c0,0.9,0,1.8,0,2.7c0,0.9,0,1.7,0,2.6c0,0.9-0.1,1.8-0.1,2.6c-0.8,0.9,0.5,1.6,0.1,2.5c0,0.1,0,0.1,0,0.2
	c0,0.6,0,1.3,0,1.9c0,0.5,0.2,0.8,0.7,0.8c0.3,0,0.6,0.1,0.8,0.3c0.4,0.3,0.7,0.3,1,0c0.3-0.3,0.7-0.4,1.1-0.3c0.2,0,0.5,0,0.8,0
	c0.5-0.1,1,0,1.5,0.2c0.7,0.3,1.4,0.6,1.8,1.4c0.8-0.3,0.8-0.3,0.9-1.1c0-0.5,0.2-0.7,0.8-0.7c0.5,0,1,0,1.4-0.1
	c0.5-0.1,0.9-0.3,1.4-0.4c1.2-0.2,2.3-0.8,3.2-1.5c1.5-1.1,2.5-2.6,2.9-4.5c0-0.2,0.2-0.4,0.3-0.6c0.6-0.5,0.8-1,0.4-1.7
	c-0.1-0.1-0.1-0.3,0-0.5c0-1.5,0.1-3,0.1-4.6c0-0.3-0.1-0.7-0.1-1c-0.1-0.5-0.1-1.1-0.1-1.6c0-0.3,0-0.7-0.1-0.9
	c-0.4-0.8-1-1.5-1.4-2.3C305.9,395.3,305.8,395,305.7,394.5 M276.4,409.8c-0.4,0.3-0.6,0.5-0.9,0.7c-0.2,0.1-0.4,0.2-0.7,0.3
	c-0.1-0.2-0.2-0.4-0.2-0.7c0-2.1,0-4.1,0-6.2c0-3.5,0-7,0-10.6c0-3.5,0-7.1,0-10.6c0-0.4,0-0.9,0-1.3c0-0.9,0.1-1,1-1
	c0.8,0,1.6,0,2.5,0c2.5,0,5,0,7.5,0c0.5,0,1,0,1.4,0.5c0.5-0.5,1.1-0.5,1.7-0.5c3,0,6,0,8.9,0c0.3,0,0.6,0.1,1,0.1
	c-0.1,0.5-0.1,0.8-0.1,1.2c0,0.2,0.1,0.4,0.1,0.6c0,0.1,0.2,0.2,0.3,0.2c0.1,0,0.3-0.2,0.3-0.3c0-0.5-0.1-1.1-0.1-1.7
	c0.1,0,0.3-0.2,0.5-0.2c1.9,0,3.8,0,5.7,0.1c0.9,0,1.9,0.3,2.8,0.5c1.3,0.3,2.5,0.7,3.6,1.3c0.7,0.4,1.2,0.9,2.1,0.9
	c0.5,0,1.1,0.6,1.6,1c2.5,1.9,4.2,4.5,5.6,7.3c0.5,1.1,0.9,2.3,1,3.5c0.1,0.9,0.3,1.8,0.4,2.7c0.1,0.9-0.7,1.8-1.6,1.9
	c-0.1,0-0.3,0-0.4,0c-0.2,0.1-0.4,0.2-0.5,0.4c0,0.2,0.1,0.5,0.3,0.5c0.5,0.3,1,0.8,1.7,0.6c0.5-0.1,0.7,0.2,0.7,0.6
	c0,0.1,0,0.2,0,0.3c-0.1,1.8-0.1,3.6-0.4,5.3c-0.4,2.6-1.1,5.1-2.2,7.4c-1,2.1-2.1,4.2-3.9,5.8c-0.9,0.9-1.9,1.7-3.1,2.3
	c-0.6,0.3-1.2,0.7-1.7,1c-0.4-0.1-0.8-0.4-1-0.3c-0.2,0.1-0.3,0.5-0.6,0.9c-1.3,0.5-2.7,0.8-4.2,1.2c-3.3,0.7-6.6,0.3-9.9,0.4
	c-0.9,0-1.6-0.7-1.7-1.6c0-0.4,0.2-0.6,0.5-0.9c0.2-0.2,0.3-0.6,0.4-0.9c0,0-0.2-0.2-0.3-0.3c-0.4,0-0.6,0.3-0.8,0.6
	c-0.1,0.2-0.3,0.5-0.5,0.8c-0.2-0.2-0.4-0.4-0.5-0.5c-1,0.4-1.3,1.2-0.9,2.8c-0.5,0-0.9,0-1.4,0c-0.9,0-1.1,0.1-1.1,1
	c0,5.7,0,11.3,0,17c0,0.9-0.1,1.8-0.1,2.8c0,0.5-0.1,0.9-0.6,1.2c-0.3,0.2-0.4,0.5-0.3,0.8c0.1,0.5,0.2,1.1,0.6,1.6
	c0.2,0.2,0.3,0.7,0.4,1c0,2.6,0,5.2,0,7.8c0,0.9-0.2,1.1-1.1,1.1c-2.6,0-5.2,0-7.8,0c-1.3,0-2.7,0-4,0.1c-0.3,0-0.6,0-0.9,0
	c-0.7-0.1-0.8-0.2-0.8-0.9c0-2.6,0-5.2,0-7.8c0-0.9,0-1.8-0.1-2.8c0-0.6,0-1.2,0.6-1.5c0-0.1,0-0.2,0-0.2c-0.7-0.5-0.8-1.2-0.7-2
	c0-2.8,0-5.5,0-8.3c0-0.4,0-0.8,0.4-1c0.3-0.2,0.3-0.5,0.2-0.7c-0.6-0.9-0.5-2-0.5-3c0-6.3,0-12.6,0-18.8c0-0.9,0.2-1.2,1-1.4
	c0.2-0.1,0.4-0.1,0.5,0c0.5,0.2,1,0.5,1.4,0.8c0.5,0.4,0.5,0.4,1,0c0.1-0.1,0.1-0.1,0.2-0.2c0.3-0.2,0.5-0.1,0.6,0.2
	c0.1,0.2,0,0.5-0.1,0.6c-0.4,0.3-0.9,0.5-1.4,0.7c-0.5,0.2-1.1,0.3-1.6,0.5c-0.1,0-0.1,0.1-0.3,0.3c0.8,0.2,1.4,0.4,2.1,0.5
	c0.7,0.2,1.3,0.3,1.6,1c0.3,0.6,0.6,1,1.3,1.1c0.2,0,0.4,0.2,0.7,0.3c0.5,0.2,0.9,0,0.9-0.6c0-0.3-0.1-0.7-0.1-1
	c0-0.6,0.4-0.8,1-0.5c0.3,0.2,0.6,0.3,0.9,0.5c0.2-0.8,0.4-1.5,0.6-2.2c-0.6-0.3-0.8-0.3-1.3,0.2c-0.2,0.2-0.5,0.4-0.9,0.8
	c0-0.5-0.1-0.7,0-0.9c0.1-0.5-0.1-0.9-0.6-1c-0.5-0.1-0.5-0.4-0.5-0.9c0-1.2-0.7-1.6-1.7-1.1c-1,0.5-2.4,0.2-3.1-0.7
	C276.6,410.2,276.5,410.1,276.4,409.8"/>
<path class="st0" d="M384.8,394.2c-0.1,0.1-0.1,0.2-0.1,0.3c0,0.1,0.1,0.2,0.2,0.2c0.1,0,0.2-0.1,0.2-0.1
	C385,394.4,384.9,394.3,384.8,394.2 M404.2,430.5c-0.1-0.1-0.2-0.2-0.3-0.2c0,0-0.2,0.1-0.2,0.2c0,0.1,0.1,0.2,0.2,0.2
	C404,430.6,404.1,430.5,404.2,430.5 M415.4,396.6c-0.1-0.1-0.1-0.1-0.2-0.1c0,0.1-0.1,0.1-0.1,0.2c0,0,0.1,0.1,0.1,0.1
	C415.3,396.7,415.4,396.6,415.4,396.6 M394.9,401.1c-0.1,0.2-0.2,0.3-0.2,0.3c0,0.1,0.1,0.2,0.2,0.2c0,0,0.2-0.1,0.2-0.2
	C395.1,401.4,395,401.3,394.9,401.1 M410.6,443.6c-0.1,0-0.2,0-0.3,0c0,0.2,0,0.3,0,0.5c0,0,0.2,0,0.2,0
	C410.5,443.9,410.5,443.8,410.6,443.6 M395.5,412.6c-0.1,0-0.2-0.1-0.2-0.1c-0.1,0.1-0.2,0.3-0.2,0.4c0,0.1,0.1,0.3,0.2,0.3
	c0.1,0,0.3-0.1,0.4-0.2C395.7,412.9,395.6,412.7,395.5,412.6 M407,422c-0.2-0.1-0.4-0.2-0.5-0.2c-0.1,0-0.2,0.2-0.3,0.3
	c0.1,0.1,0.2,0.2,0.3,0.2C406.7,422.3,406.8,422.2,407,422 M411.5,427.2c0.2-0.2,0.3-0.3,0.3-0.4c-0.1-0.2-0.2-0.3-0.4-0.5
	c-0.1,0.1-0.3,0.2-0.3,0.3C411.2,426.7,411.3,426.9,411.5,427.2 M412.4,421.3c0.1,0,0.2-0.1,0.2-0.1c0.1-0.1,0.2-0.3,0.2-0.4
	c0-0.1-0.2-0.2-0.3-0.3c-0.1,0.1-0.2,0.3-0.3,0.4C412.2,421,412.3,421.1,412.4,421.3 M395.4,395.7c0.4-0.2,0.5-0.5,0.3-0.8
	c-0.1-0.1-0.4-0.1-0.5,0C394.9,395.2,395.1,395.5,395.4,395.7 M409.7,446c0.2-0.2,0.4-0.4,0.4-0.5c0-0.1-0.2-0.4-0.3-0.3
	c-0.2,0.1-0.4,0.2-0.4,0.4C409.4,445.6,409.6,445.8,409.7,446 M407.2,409.7c0-0.1,0-0.1,0-0.2c-0.2-0.1-0.4-0.2-0.5-0.2
	c-0.2,0-0.3,0.2-0.4,0.4c0.1,0.1,0.3,0.3,0.4,0.3C406.8,409.9,407,409.7,407.2,409.7 M418.3,401.4c-0.2,0.2-0.3,0.4-0.4,0.5
	c0.2,0.1,0.3,0.3,0.5,0.3c0.1,0,0.3-0.2,0.4-0.3C418.6,401.8,418.5,401.7,418.3,401.4 M409.9,406.8c0.2-0.3,0.4-0.5,0.4-0.6
	c0-0.3-0.2-0.5-0.5-0.4c-0.1,0-0.4,0.3-0.3,0.3C409.5,406.3,409.7,406.5,409.9,406.8 M412.4,422.5c-0.3-0.2-0.5-0.4-0.5-0.4
	c-0.2,0.1-0.4,0.3-0.5,0.5c0,0.1,0.2,0.3,0.3,0.5C411.9,422.9,412.1,422.7,412.4,422.5 M411,408.4c0.2-0.3,0.4-0.4,0.4-0.6
	c0-0.3-0.2-0.5-0.5-0.5c-0.1,0-0.3,0.3-0.3,0.4C410.7,408,410.9,408.1,411,408.4 M389.5,384.5c0.1-0.1,0.1-0.2,0.1-0.3
	c0-0.4-0.1-0.6-0.5-0.7c-0.1,0-0.3,0.1-0.3,0.1c-0.2,0.3,0,0.6,0.3,0.8C389.3,384.5,389.4,384.5,389.5,384.5 M391,389.5
	c0.4-0.6,0.4-1,0.1-1.3c-0.1-0.1-0.4-0.1-0.5-0.1c-0.1,0-0.2,0.3-0.1,0.4C390.5,388.8,390.7,389.1,391,389.5 M402.1,406.7
	c-0.5,0-1,0.3-0.9,0.6c0,0.1,0.2,0.3,0.4,0.3c0.4,0.1,0.9-0.3,0.8-0.6C402.4,406.8,402.2,406.7,402.1,406.7 M405.8,419
	c-0.1,0.4-0.1,0.7-0.1,1.1c0,0.1,0.2,0.3,0.3,0.3c0.2,0,0.4-0.1,0.5-0.2C406.7,419.9,406.5,419.5,405.8,419 M422.9,382.5
	c0.5-0.7,0.5-0.9,0-1.5C422.3,381.4,422.3,381.6,422.9,382.5 M406.3,449.8c-0.1,0.1-0.1,0.1-0.2,0.2c0,0.3,0,0.5,0.1,0.8
	c0.1,0.2,0.2,0.4,0.4,0.5c0.2,0,0.5-0.1,0.5-0.3c0.1-0.2,0.1-0.5,0-0.7C406.8,450.1,406.5,449.9,406.3,449.8 M421,385.6
	c-0.6,0.1-0.9,0.2-0.9,0.7c0,0.3,0.1,0.7,0.5,0.7c0.4,0,0.6-0.3,0.6-0.6C421.1,386.2,421,385.9,421,385.6 M386.4,385
	c0.4-0.7,0.4-1.2,0.3-1.6c0-0.2-0.3-0.4-0.5-0.4c-0.3,0-0.4,0.3-0.3,0.6C386,383.9,386.2,384.4,386.4,385 M403.2,439.3
	c0.8,0.3,1,0.3,1.6-0.3C403.8,438.1,403.6,438.1,403.2,439.3 M410,437.6c0-0.8-0.6-0.9-1.1-1.2c-0.1,0.2-0.3,0.4-0.3,0.5
	c0,0.2-0.1,0.5,0,0.7c0.1,0.1,0.4,0.1,0.7,0.1C409.4,437.8,409.7,437.7,410,437.6 M393.9,406.7c0.3-0.4,0.6-0.6,0.6-0.8
	c0-0.5-0.2-1-0.3-1.5c0-0.1-0.4-0.1-0.5-0.1c-0.4,0.2-0.5,0.5-0.4,0.9C393.4,405.7,393.6,406.1,393.9,406.7 M397,395.1
	c-0.1,0-0.1,0-0.2,0.1c-0.4,0.7,0.1,1.3,0.1,2c0,0.1,0.3,0.2,0.5,0.2c0.1,0,0.3-0.2,0.4-0.3C397.9,396.5,397.5,395.5,397,395.1
	 M409.9,426.6c0.2-0.3,0.4-0.5,0.4-0.6c0-0.6-0.1-1.1-0.2-1.7c0-0.1-0.1-0.3-0.2-0.4c-0.2-0.1-0.4-0.2-0.6-0.3
	c-0.1,0.2-0.2,0.4-0.2,0.7c0,0.1,0.1,0.3,0.1,0.3c0.4,0.4,0.5,0.9,0.4,1.4C409.7,426.1,409.8,426.3,409.9,426.6 M392,393.1
	c0.6-1,0.3-2.1-0.6-2.5C390.9,391.4,391.1,392.2,392,393.1 M402.8,450c-0.5-0.4-1.2-0.7-1.6-0.6c-0.2,0-0.4,0.2-0.5,0.4
	c-0.2,0.4-0.3,0.9-0.4,1.3c0,0.2,0,0.4,0.1,0.5c0.2,0.1,0.4,0.1,0.6,0.1c0.1,0,0.3-0.2,0.3-0.4c0.2-0.5,0.6-0.9,1.1-1
	C402.6,450.2,402.7,450.1,402.8,450 M404.8,413.7c-0.3,0-0.7,0-1,0c-0.2,0-0.6,0.1-0.6,0.2c-0.1,0.2,0,0.6,0.2,0.8
	c0.3,0.5,0.8,0.8,0.8,1.5c0,0.1,0.3,0.2,0.4,0.3c0.1-0.1,0.3-0.3,0.3-0.4c0-0.2-0.1-0.5-0.1-0.6C405.5,414.9,405,414.3,404.8,413.7
	 M398.9,404.1c0-0.3,0-0.5-0.1-0.7c-0.1-0.2-0.2-0.5-0.4-0.5c-0.2,0-0.5,0.1-0.6,0.3c-0.2,0.2-0.4,0.5-0.6,0.7
	c-0.2,0.3-0.3,0.6-0.1,0.9c0.2,0.4,0.6,0.6,1,0.5c0.4,0,0.6-0.3,0.7-0.6C398.8,404.5,398.9,404.3,398.9,404.1 M396.6,416.1
	c-0.4-0.8-1.2-0.9-1.8-1.3c-0.4-0.2-0.9,0.1-1,0.4c-0.2,0.5,0.2,0.6,0.5,0.8c0.2,0.1,0.4,0.2,0.6,0.3c0.2,0.1,0.3,0.2,0.4,0.3
	c0.7,0.8,0.8,0.8,1.2-0.2C396.5,416.3,396.5,416.2,396.6,416.1 M405.1,432.9c0.9-0.5,1.5-0.1,2,0.6c0,0,0,0.1,0,0.1
	c0.2,0.1,0.4,0.3,0.5,0.2c0.3-0.1,0.3-0.4,0.1-0.6c-0.4-0.3-0.5-0.6-0.5-1.1c-0.1-0.4-0.4-0.7-0.8-0.7c-0.5,0-1-0.1-1.6-0.1
	C404.3,431.9,404.7,432.4,405.1,432.9 M400.9,420.6c-0.3,0.5-0.2,0.8,0,1.2c0.1,0.3,0.2,0.6,0.3,0.9c0.2,0.7,0.3,1.5,0.5,2.2
	c0,0.1,0.1,0.3,0.2,0.3c0.1,0,0.4-0.1,0.4-0.1c0.1-0.3,0.2-0.6,0.1-0.9c-0.1-0.3-0.3-0.6-0.4-1c-0.1-0.3-0.1-0.5-0.1-0.8
	C402.1,421.5,401.8,420.9,400.9,420.6 M396.4,398c-0.6,0.4-1.2,0.9-1.8,1.4c-0.3,0.2-0.3,0.6-0.1,0.8c0.3,0.3,0.5,0.3,0.8,0
	c0.5-0.5,1-1,1.7-1.1c0.2,0.2,0.4,0.3,0.6,0.4c0.1,0.1,0.5,0,0.5-0.1c0-0.2,0-0.5-0.1-0.6C397.5,398.6,396.9,398.4,396.4,398
	 M410.2,451.3c0.2,0,0.4,0,0.6,0c0.3-0.1,0.7-0.2,0.7-0.3c0.1-0.2-0.1-0.6-0.3-0.8c-0.3-0.3-0.4-0.7-0.4-1.1c0-0.3-0.1-0.7-0.2-1
	c-0.1-0.1-0.4-0.3-0.5-0.3c-0.1,0-0.3,0.3-0.4,0.5c0,0.2,0,0.4,0.1,0.6c0.1,0.5,0.1,1-0.4,1.4c-0.5,0.4-0.3,0.8,0.3,0.9
	C409.8,451.3,410.1,451.3,410.2,451.3 M420.6,401.4c1,0,1.6-0.3,1.9-1.1c0.2-0.6-0.1-1.6-0.7-1.6c-0.5,0-1.1,0-1.5,0.5
	c-0.2,0.3-0.5,0.4-0.9,0.5c-0.7,0.1-0.7,0.4-0.3,0.9c0.1,0.1,0.2,0.2,0.3,0.3C419.7,401.3,420.1,401.4,420.6,401.4 M398.8,418.1
	c0.7-0.2,1,0.2,1.3,0.6c0.1,0.2,0.5,0.4,0.6,0.3c0.2-0.1,0.4-0.4,0.4-0.7c0.1-0.2-0.1-0.5-0.1-0.7c-0.1-0.6,0.1-1.1,0.7-1.4
	c0.3-0.2,0.6-0.4,0.8-0.6c0.3-0.3,0.3-0.6,0-0.9c-0.5-0.1-0.8,0.3-1,0.6c-0.1,0.2-0.4,0.5-0.5,0.5c-0.6-0.2-0.9,0.3-1.3,0.6
	c0,0-0.1,0-0.2,0c-0.2-0.1-0.4-0.3-0.6-0.5C398.6,416.6,398.6,417.3,398.8,418.1 M394.1,397.8c0-0.3,0-0.5-0.1-0.8
	c0-0.1,0-0.2-0.1-0.3c-0.2-0.5-0.4-0.6-0.8-0.3c-1,0.7-2,1.5-3,2.3c-0.3,0.2-0.5,0.5-0.6,0.8c-0.1,0.2,0.1,0.5,0.2,0.7
	c0.1,0.1,0.4,0,0.6,0c0.3-0.1,0.5-0.3,0.8-0.3c0.8,0.1,1.6-0.1,2.1-0.8c0.1-0.1,0.1-0.1,0.2-0.2C394,398.8,394.2,398.4,394.1,397.8
	 M412.3,407.6c0.8,0.4,1.4,0.2,2-0.2c1-0.7,2-1.3,3.1-2c0.5,0.3,0.9,0.6,1.4,0.1c-0.1-0.3-0.3-0.5-0.4-0.8c0.9-0.6,1.6-0.1,2.4,0.4
	c0.1-0.6,0.1-1.1,0.2-1.6c-1.1-0.6-2,0.5-2.9,0.3c-0.7-1-0.7-1-1.6-0.1c-1.1,1.1-2.3,2.1-3.4,3.2C412.7,407,412.5,407.3,412.3,407.6
	 M402.8,412.3c0.1,0,0.2,0,0.2,0c0.3-0.6,0.7-1.3,1-1.9c0.4-0.7,0.4-1,0-1.5c-0.5-0.6-1-0.7-1.7-0.4c-0.2,0.1-0.5,0.3-0.7,0.2
	c-0.7-0.2-1.3,0.1-1.9,0c-0.8-0.1-1.6,0.3-2.3-0.2c-0.1-0.1-0.4,0.1-0.5,0.2c-0.5,0.4-0.5,1.1,0.1,1.5c0.8,0.6,0.9,1.4,1.2,2.2
	c0.3,0.8,0.2,0.8,1,0.8c0.1,0,0.2,0,0.3,0.1c0.2,0.3,0.3,0.6,0.5,1c0.5-0.6,0.7-1.1,0.7-1.8c-0.1-1-0.2-1.1-1.2-1.2
	c0,0-0.1-0.1-0.1-0.2c0.4-0.4,0.9-0.9,1.4-1.2c0.5-0.4,1-0.2,1,0.5c0,0.8,0.3,1.1,0.9,1.2C402.6,411.8,402.7,412,402.8,412.3
	 M413.2,424.3c-0.2-0.4-0.4-0.8-0.7-1.2c-0.6,0.7-0.6,0.7,0,1.5c-0.1,0.3-0.2,0.6-0.3,0.9c0.5,0.5,0.6,1.1,0.5,1.7
	c-0.1,0.4-0.1,0.8-0.6,1.1c-0.6,0.3-0.6,0.8,0,1c0.4,0.2,0.5,0.4,0.5,0.8c0,0.5,0,1.1,0,1.6c0,1.1,0,2.3,0,3.4c0,0.7,0,1.3-0.8,1.8
	c0.9,0.8,0.7,1.9,0.7,2.9c0,3.5,0.1,7.1,0.1,10.6c0,1,0,1.9,0,2.9c0,0.5-0.1,0.8-0.6,1c-0.1,0-0.1,0.1-0.2,0.1c-1.3,0.8-1.4,2,0,2.7
	c0.7,0.4,0.8,0.8,0.8,1.4c0,0.3,0,0.7,0,1c0,0.9-0.2,1-1,1c-3,0-6,0.1-9,0c-1.1,0-2.2,0-3.2,0c-1.6,0-1.6,0-1.5-1.6
	c0-2.5,0-5.1,0-7.6c0-0.6,0-1.1,0.7-1.3c0.2,0,0.3-0.3,0.4-0.4c0-0.1-0.1-0.2-0.1-0.2c-0.9-0.3-1-1-1-1.9c0-1.9,0-3.9,0-5.8
	c0-0.3,0.1-0.6,0.4-0.8c0.3-0.1,0.7-0.1,1,0.2c0.4,0.4,0.5,0.8,0.6,1.3c0,0.5,0.1,1,0.7,1.3c0.4-0.6,0.4-1.2,0.3-1.8
	c-0.1-0.7-0.3-1.3-0.5-1.9c-0.2-0.7-0.5-0.8-1.2-0.5c-0.3,0.1-0.6,0.2-1,0.3c-0.1-0.3-0.2-0.5-0.1-0.7c0.1-1.2,0.2-2.3,0.3-3.5
	c0-0.3,0-0.6,0-0.9c-0.1-0.4-0.2-0.9-0.3-1.3c-0.1-0.5,0-0.9,0.4-1.2c0.6-0.6,0.7-1.3,0.4-2.2c-0.2-0.4,0-1.1,0.1-1.8
	c0.4,0.3,0.7,0.5,0.9,0.6c0.1,0.1,0.4,0,0.5-0.1c0.1-0.1,0.1-0.3,0.1-0.4c-0.3-0.4-0.4-0.9-1-1c-1.2-0.4-2.1-1.7-1.9-3
	c0.1-0.5,0-0.8-0.5-0.9c-0.2,0-0.3-0.3-0.4-0.4c-1.1-2.4-2.3-4.9-3.4-7.3c-1-2.2-2-4.5-3-6.7c-0.6-1.3-1.2-2.5-1.8-3.8
	c-0.4-0.7-0.7-1.5-1-2.2c-0.3-0.6,0-1.2,0.7-1.2c0.4,0,0.7-0.2,0.8-0.5c0.1-0.4-0.1-0.7-0.4-0.9c-0.5-0.3-0.7-0.7-0.6-1.3
	c0-0.1-0.2-0.5-0.2-0.5c-0.2,0-0.4,0.1-0.6,0.3c-0.1,0.1,0,0.2-0.1,0.4c-0.3,0.5-0.9,0.5-1.2,0c-0.3-0.7-0.6-1.4-1-2.2
	c-0.9-2-1.9-4.1-2.8-6.1c-0.9-2-1.8-4-2.7-6c-0.6-1.3-1.2-2.7-1.9-4.1c0.3-0.1,0.5-0.1,0.8-0.1c2.3,0,4.6,0,6.8,0c0.6,0,1,0.2,1.3,1
	c0.3-1,0.8-1,1.5-1c1.5,0,3,0,4.5,0c0.7,0,1,0.3,1.2,0.8c0.7,1.8,1.4,3.6,2.2,5.3c0.7,1.7,1.5,3.5,2.2,5.2c0.5,1.2,1.1,2.4,1.5,3.7
	c0.2,0.8,0.7,1.4,1,2.2c0.3,0.8,0.6,1.5,0.9,2.3c0.6,1.5,1.2,3,1.9,4.5c0,0.1,0.1,0.2,0.2,0.3c0.4,0.6,0.5,1.3,0.4,2
	c-0.1,0.5,0,0.8,0.6,1c0.6,0.2,0.9,0.8,0.8,1.5c0,0.4,0,0.7,0.4,0.7c0.4,0.1,0.6-0.2,0.8-0.5c0.3-0.7,0.6-1.3,1-1.9
	c0.1-0.1,0.1-0.2,0.1-0.4c0.3-1.6,1.1-3,1.7-4.5c0.8-1.8,1.4-3.7,2.2-5.6c0.4-1.1,0.9-2.1,1.3-3.1c0.6-1.4,1.1-2.9,1.7-4.3
	c0.1-0.2,0.1-0.4,0.2-0.5c0.9-1.3,1.2-2.9,1.7-4.3c0.2-0.5,0.4-1.1,0.6-1.6c0.4-0.9,0.7-1.8,1.1-2.7h15.8c-0.1,0.4-0.1,0.7-0.3,1
	c-0.7,1.7-1.5,3.4-2.3,5.1c-0.8,1.7-1.6,3.3-2.4,4.9c-0.6,1.2-1.1,2.3-1.6,3.5c-0.3,0.6-0.6,1.1-0.8,1.7c-0.3,0.6-0.7,1.2-0.8,2
	c-0.1,0.8-0.7,1.6-1,2.4c-0.3,0.8-0.8,1.3-1.7,1.4c-0.1,0-0.2,0.1-0.4,0.1c-0.3,0.2-0.6,0.4-0.5,0.8c0.1,0.4,0.5,0.3,0.8,0.3
	c0.1,0,0.2,0,0.4,0c0,0.2,0,0.4-0.1,0.6c-1,2.1-1.9,4.2-2.9,6.3c-0.9,2-1.9,4-2.8,6.1c-0.7,1.7-1.5,3.3-2.2,5
	c-0.3,0.8-0.7,1.5-1.1,2.3C413.4,424.2,413.3,424.3,413.2,424.3"/>
<path class="st0" d="M347.3,424.1c0.3,0.8,0.5,1.3,0.8,2h-1.3C346.9,425.5,346.6,424.8,347.3,424.1"/>
<path class="st0" d="M293.3,426.1h-1.4c0.1-0.7-0.2-1.3,0.5-2C292.7,424.8,293,425.4,293.3,426.1"/>
<path class="st0" d="M386.1,400.7c-0.2,0.1-0.2,0.2-0.3,0.3c-0.1-0.1-0.2-0.1-0.1-0.2c0-0.1,0.1-0.2,0.2-0.2
	C385.8,400.5,386,400.6,386.1,400.7"/>
<path class="st0" d="M341.8,401.1c-0.1-0.2-0.3-0.2-0.3-0.3c0-0.1,0.1-0.2,0.2-0.2c0,0,0.2,0.1,0.2,0.2
	C341.9,400.8,341.9,400.9,341.8,401.1"/>
<path class="st0" d="M286.9,401.1c-0.1-0.1-0.2-0.2-0.2-0.3c0,0,0.1-0.1,0.2-0.2c0.1,0.1,0.2,0.1,0.2,0.2
	C287.1,400.8,287,400.9,286.9,401.1"/>
<path class="st0" d="M268.9,514.1c-0.1,0.2-0.3,0.2-0.3,0.3c0,0.1,0.1,0.2,0.2,0.4c0.1-0.1,0.3-0.1,0.3-0.2
	C269.1,514.5,269,514.3,268.9,514.1 M258.7,514.9c-0.1,0.2-0.3,0.3-0.3,0.4c0,0,0.1,0.2,0.2,0.2c0.1-0.1,0.3-0.2,0.4-0.4
	C258.9,515.1,258.8,515,258.7,514.9 M263.6,502.2c-0.3-0.2-0.4-0.4-0.5-0.4c-0.2,0.1-0.4,0.3-0.5,0.4c0.1,0.1,0.3,0.3,0.4,0.3
	C263.1,502.6,263.3,502.4,263.6,502.2 M254.7,498.8c-0.3,0.2-0.6,0.3-0.7,0.5c-0.1,0.1-0.1,0.3-0.1,0.5c0.2,0,0.4,0.1,0.5,0
	C254.7,499.7,254.9,499.4,254.7,498.8 M270.5,516.1c-0.1-0.1-0.1-0.1-0.2-0.2c-0.2,0.1-0.5,0.2-0.7,0.3c-0.2,0.2-0.2,0.5,0,0.6
	c0.2,0.2,0.5,0.1,0.6-0.1C270.4,516.5,270.4,516.3,270.5,516.1 M267.6,497.7c0.1,0.1,0.1,0.1,0.2,0.2c0.8-0.6,1.7-1.1,2.5-1.7
	c0-0.1-0.1-0.1-0.1-0.2c-0.5,0-1-0.1-1.3,0.1C268.4,496.5,267.9,497,267.6,497.7 M264.2,500.7c0.1,0.5,0.1,0.5,0.6,0.6
	C264.8,500.8,264.4,500.8,264.2,500.7c0.1-0.2,0.3-0.5,0.5-0.8c0.5-0.5,0.7-1.1,0.7-1.9c-0.1-0.9,0-1.8-0.1-2.7
	c0-0.3-0.1-0.6-0.2-0.8c-0.9-1.2-2.3-2.7-4.4-2.1c-0.6,0.2-1.2,0.1-1.8,0.2c-0.5,0.1-1.1,0.1-1.6,0.2c-0.7,0.2-0.7,0.3-0.6,1
	c0,0.1,0,0.2,0.1,0.4c0.2,0.6,0.3,1.2-0.2,1.7c-0.2,0.3-0.3,0.7,0.1,0.9c0.6,0.4,0.7,0.9,0.7,1.5c0.1,0.8,0.2,1.5,0.3,2.3
	c0,0.8,0.5,1.3,1.1,1.5c0.5-0.3,0.9-0.6,1.3-0.6c0.4,0,0.8,0.4,1.2,0.7c0-0.3-0.1-0.6-0.1-0.8c0.9-0.3,1.7-0.5,2.5-0.7
	C263.8,500.7,264,500.7,264.2,500.7 M271.1,494.9c0,0.5-0.3,1,0.2,1.4c0,0,0,0.1,0,0.1c-0.2,1.9-0.5,3.7-2.2,5
	c-0.2,0.1-0.4,0.2-0.6,0.4c-0.1,0.1-0.2,0.3-0.4,0.4c0.2,0.1,0.4,0.2,0.5,0.3c0.5,0.2,1.1,0.4,1.6,0.6c1.4,0.7,2.1,1.8,2.3,3.3
	c0.3,1.9,0.7,3.7,0.9,5.6c0.1,0.7,0.4,1.4,0,2.1c-0.1,0.1,0,0.3,0.1,0.4c0.6,0.9,0.9,2,1.8,2.7c0.1,0.1,0.1,0.2,0.1,0.4
	c-0.3,0.1-0.5,0.2-0.7,0.2c-1.6,0.2-3.3,0.4-4.9,0.6c-1,0.1-1.1,0-1.5-0.9c-0.7-1.9-0.9-3.8-1.2-5.8c-0.1-0.9-0.2-1.8-0.3-2.7
	c-0.2-1.3-1-2.3-2-3.1c-0.3-0.2-0.7-0.3-1.1-0.3c-0.7,0-1.4,0-2.1,0c-0.6,0-1.2,0.1-1.6-0.4c-0.5,0.3-1,0.5-1.4,0.8
	c-0.4,0.3-0.3,0.7-0.3,1.1c0.3,2.2,0.6,4.4,0.9,6.6c0.2,1.7,0.5,3.3,0.7,5c0.1,0.8,0,1-0.8,1.1c-1.3,0.2-2.7,0.4-4,0.6
	c-0.6,0.1-0.8,0-0.9-0.7c-0.2-1.4-0.3-2.8-0.4-4.2c-0.1-1-0.4-2-0.5-3c-0.1-0.6,0-1.2-0.1-1.8c0-0.1,0-0.3,0-0.4
	c-0.6-1.1-0.6-2.3-0.7-3.5c-0.1-1.2-0.3-2.3-0.5-3.5c0-0.2,0-0.5-0.1-0.7c-0.1-0.4,0-0.7,0.3-1c0.3-0.2,0.5-0.1,1.1,0.3
	c-0.1,0.2-0.1,0.4-0.2,0.6c0.4,0.2,0.8,0.4,1.3,0.7c0.4,0.2,0.6,0.2,0.9-0.2c0.2-0.3,0.4-0.5,0.6-0.8c-0.5-0.4-0.9-0.8-1.4-1.2
	c-0.1-0.1-0.3-0.1-0.3-0.1c-0.6,0.3-1.2-0.1-1.8,0c-0.5,0.1-0.7-0.2-0.8-0.6c-0.1-0.9-0.3-1.8-0.4-2.7c-0.3-2.4-0.7-4.9-1-7.3
	c-0.1-0.7,0-1,0.8-1.1c3-0.4,5.9-0.7,8.9-1.1c1.4-0.2,2.8-0.4,4.3-0.3c0.5,0,0.9,0.2,1.3,0.4c0.1,0,0.2,0.1,0.4,0.1
	c2,0.1,3.3,1.3,4.2,2.9c0.3,0.6,0.6,1.2,0.8,1.9c0.2,0.6,0.2,0.7-0.4,1c-0.4,0.2-0.5,0.4-0.4,0.9H271.1z"/>
<path class="st0" d="M297,505.3c0,0.1,0,0.1,0,0.2c0.1,0,0.3,0.1,0.4,0.1c0-0.1,0.1-0.2,0.1-0.2C297.3,505.4,297.2,505.3,297,505.3
	 M290.6,498.5c-0.1,0.1-0.3,0.2-0.3,0.3c0,0.1,0.1,0.2,0.2,0.3c0,0,0.2-0.1,0.2-0.2C290.8,498.8,290.7,498.7,290.6,498.5
	 M299.5,512.5c-0.2-0.1-0.3-0.3-0.4-0.3c-0.1,0-0.2,0.2-0.3,0.3c0,0.1,0.2,0.2,0.3,0.3C299.3,512.8,299.4,512.6,299.5,512.5
	 M293.9,504.6c-0.1,0.2-0.3,0.3-0.3,0.5c0,0.1,0.2,0.3,0.3,0.2c0.1-0.1,0.3-0.2,0.3-0.3C294.3,504.9,294.1,504.8,293.9,504.6
	 M289.2,492.6c-0.5,0.6-0.5,0.6-0.1,1.1C289.8,493.4,289.8,493.4,289.2,492.6 M295.7,497.3c0.7-0.4,0.8-0.6,0.6-0.9
	c-0.2-0.3-0.5-0.4-0.7-0.2C295.1,496.6,295.4,497,295.7,497.3 M290.6,493c0.6-0.1,1-0.2,1.3-0.6c0.1-0.1,0-0.4,0-0.5
	c0-0.1-0.3-0.1-0.4-0.1C291.1,492,290.7,492.3,290.6,493 M293.4,491.6c-0.4,0.6-0.9,1.1-0.7,1.8c0.1,0.4-0.2,0.8-0.3,1.2
	c-0.1,0.2-0.3,0.4-0.2,0.6c0.3,0.9-0.1,1.7-0.2,2.5c-0.2,1.6-0.3,3.2-0.9,4.8c-0.1,0.2,0,0.5,0,0.8c0.1,0.6,0.5,0.9,1.1,0.9
	c1,0,2-0.1,3-0.2c0.8-0.1,1-0.2,0.8-1c-0.5-1.7-0.5-3.4-1.1-5.1c-0.1-0.3-0.1-0.7-0.1-1c0-0.2,0-0.3,0-0.4c-0.5-1-0.6-2.2-0.8-3.3
	C293.8,492.7,293.6,492.1,293.4,491.6 M303.4,512.7c1.1,0.4,1.3,1,1.5,1.7c0,0.3,0.1,0.6,0.2,0.9c0.2,0.8,0.1,1-0.8,1.1
	c-1.6,0-3.1,0.1-4.7,0.1c-0.5,0-0.8-0.2-0.9-0.7c-0.3-1.4-0.7-2.7-1-4.1c-0.2-0.7-0.3-1.5-0.5-2.2c-0.2-0.8-0.4-0.9-1.2-0.8
	c-0.2,0-0.3,0-0.5,0c-1.5-0.2-3,0.1-4.6,0.1c-0.5,0-0.8,0.3-0.9,0.8c-0.1,0.4-0.1,0.7-0.2,1.1c-0.1,0.6-0.3,1.1-1,1.2
	c-0.1,0-0.1,0.1-0.2,0.2c0.2,0.1,0.3,0.2,0.5,0.3c0.3,0.1,0.4,0.4,0.3,0.7c-0.2,0.9-0.3,1.8-0.5,2.7c-0.1,0.8-0.3,0.9-1.1,1
	c-1.5,0-2.9,0.1-4.4,0.1c-0.8,0-0.9-0.2-0.8-0.9c0.3-1.2,0.5-2.3,0.8-3.5c0.1-0.3,0.4-0.6,0.6-0.9c-0.4-0.5-0.2-1.1-0.1-1.8
	c0.7-3.1,1.3-6.1,2-9.2c0-0.2,0.2-0.5,0.3-0.5c0.8-0.1,1-0.9,1.7-1.2c-0.2-0.2-0.3-0.3-0.4-0.4c-0.8-0.4-1-0.7-0.8-1.5
	c0.3-1.7,0.7-3.4,1.1-5c0.4-2,0.9-4,1.3-5.9c0.1-0.5,0.4-0.7,0.8-0.7c0.5,0,1,0,1.5,0c1.7,0,3.4-0.1,5-0.1c0.8,0,1,0.1,1.2,0.9
	c0.6,2.5,1.3,5,1.9,7.5c0.1,0.3,0.1,0.7,0.2,1c0.5,1.8,1,3.7,1.4,5.5c0.7,2.7,1.4,5.5,2.2,8.2c0.3,1,0.5,2,0.7,2.9
	C304.3,511.8,304.4,512.3,303.4,512.7"/>
<path class="st0" d="M366.3,506.3c-0.1-0.1-0.2-0.1-0.3-0.1c0,0-0.1,0.1-0.1,0.1c0,0.1,0.1,0.1,0.1,0.2
	C366.1,506.5,366.2,506.4,366.3,506.3 M362.6,506.3c0.1-0.1,0.2-0.2,0.2-0.2c-0.1-0.1-0.2-0.2-0.2-0.3c-0.1,0.1-0.2,0.1-0.2,0.2
	C362.4,506,362.5,506.1,362.6,506.3 M361.4,519.3c0.2-0.1,0.4-0.1,0.4-0.1c0.1-0.1,0.1-0.2,0.2-0.3
	C361.6,518.7,361.5,518.8,361.4,519.3 M357.4,517.2c-0.2-0.1-0.3-0.2-0.3-0.2c-0.1,0.1-0.2,0.2-0.3,0.3c0,0,0.2,0.2,0.2,0.2
	C357.1,517.5,357.2,517.4,357.4,517.2 M365.1,519.5c-0.3,0.1-0.4,0.3-0.3,0.6c0,0.1,0.3,0.1,0.3,0.1
	C365.4,519.9,365.3,519.7,365.1,519.5 M364.2,507.5c0.2-0.3,0.4-0.5,0.4-0.7c0-0.1-0.3-0.4-0.4-0.4c-0.1,0-0.4,0.2-0.4,0.4
	C363.8,507,364,507.2,364.2,507.5 M373.7,503.1c0.2-0.3,0.4-0.4,0.5-0.6c0-0.1-0.3-0.4-0.4-0.3c-0.2,0-0.4,0.2-0.5,0.4
	C373.2,502.6,373.5,502.8,373.7,503.1 M360.8,498.9c-0.2,0.4-0.4,0.6-0.4,0.8c0,0.1,0.3,0.2,0.4,0.4c0.1-0.2,0.4-0.3,0.4-0.5
	C361.2,499.5,361,499.3,360.8,498.9 M365.9,521.7c-0.1-0.1-0.1-0.2-0.2-0.3c-0.3,0.1-0.6,0.1-0.8,0.2c-0.1,0.1-0.1,0.4-0.1,0.6
	c0.2,0,0.4,0.1,0.6,0.1C365.6,522.2,365.7,521.9,365.9,521.7 M363.7,499.1c-0.7-0.3-1-0.2-1.4,0.5
	C363.1,500,363.3,499.9,363.7,499.1 M364.6,505.3c0.1-0.5,0.3-0.9,0.4-1.4c-0.3-0.1-0.5-0.2-0.8-0.2c-0.1,0-0.4,0.1-0.4,0.2
	c0,0.3,0,0.7,0.1,1C364,505.1,364.1,505.4,364.6,505.3 M373.4,494.4c-0.3,0.4-0.6,0.6-0.8,0.9c0.3,0.4,0.5,0.3,0.8,0.1
	c0.6-0.4,0.7-0.4,1.1,0.2c1.1,1.3,1.3,2.8,1.4,4.3c0.1,0.7,0.2,1.5-0.2,2.2c-0.1,0.2,0,0.5,0,0.7c0,0.9-0.5,1.2-1.4,1
	c-1.1-0.2-2.2-0.4-3.2-0.7c-0.8-0.2-0.9-0.3-0.8-1.1c0.1-0.9,0.1-1.7,0.1-2.6c0-0.9-0.5-1.7-1.3-2.1c-2-1.1-4.2-0.6-4.9,1.8
	c-0.2,0.6-0.4,1.2,0.2,1.8c0.2,0.2,0.1,0.8,0.1,1.3c0.7,0.1,1,0.6,1.3,1.1c0.1,0.2,0,0.5-0.1,0.6c-0.4,0.3-0.4,0.6-0.1,0.9
	c0.3,0.3,0.6,0.1,0.8-0.1c0.1-0.1,0.2-0.1,0.3-0.1c0.3,0.2,0.6,0.5,0.9,0.8c1.4,1.7,2.9,3.4,4.3,5c1.1,1.2,1.4,2.7,1.3,4.2
	c-0.1,1.6-0.5,3.2-1.4,4.6c-0.3,0.4-0.4,0.9-0.7,1.3c-0.3,0.5-0.7,0.8-1.4,0.5c-0.1-0.1-0.4,0-0.6,0c0.1,0.3,0.2,0.6,0.3,0.9
	c-0.9,0.8-1.9,1.1-3,1.3c-0.9,0.1-1.8,0.1-2.7,0.1c-1.9-0.1-3.6-0.7-5.3-1.4c-2.4-1.1-3.6-3.1-3.9-5.6c-0.1-1.2,0-2.4,0.3-3.5
	c0.2-0.6,0.2-1.3,0.4-2c0.1-0.6,0.4-0.7,1-0.6c1.1,0.3,2.3,0.6,3.4,0.9c1.2,0.3,1.4,0.7,1,1.9c-0.4,1.2-0.5,2.4-0.3,3.6
	c0.1,1,0.9,1.5,1.8,1.9c1.8,0.8,3.8,0,4.6-1.6c0.6-1.1,0.7-2.2,0.3-3.4c-0.4-1.1-1.1-2-1.8-2.9c-0.3-0.4-0.6-0.8-0.9-1.2
	c-0.1-0.1-0.1-0.3-0.2-0.4c-1.2-0.7-1.8-1.9-2.8-2.8c-0.2-0.2-0.3-0.4-0.3-0.6c-0.1-0.4-0.3-0.6-0.6-0.8c-0.2-0.1-0.4-0.3-0.5-0.4
	c-1.3-2.1-1.7-4.3-0.8-6.7c0.4-1,0.8-2,1.5-2.7c1.7-1.8,3.7-2.9,6.2-2.7c2.2,0.1,4.2,0.6,6.1,1.7C373,494.1,373.1,494.2,373.4,494.4
	"/>
<path class="st0" d="M230.2,501.5c-0.1-0.1-0.2-0.1-0.3-0.1c-0.1,0-0.2,0.1-0.2,0.1c0,0,0.1,0.2,0.1,0.2
	C230,501.7,230.1,501.6,230.2,501.5 M233.4,511.9c0.1,0.5,0.1,0.5,0.5,0.4c0,0,0-0.1,0.1-0.2C233.7,512.1,233.5,512,233.4,511.9
	 M231.2,507.5c-0.1,0.1-0.2,0.2-0.3,0.3c0.1,0.1,0.2,0.3,0.3,0.3c0,0,0.2-0.1,0.3-0.2C231.4,507.8,231.4,507.7,231.2,507.5
	 M231.6,503.2c-0.2-0.1-0.3-0.2-0.4-0.3c-0.1,0.1-0.2,0.3-0.2,0.4c0,0,0.2,0.2,0.2,0.2C231.4,503.5,231.5,503.4,231.6,503.2
	 M236.7,520.8c0.4,0,0.6-0.1,0.6-0.4c0-0.1-0.2-0.2-0.3-0.2C236.7,520.2,236.6,520.4,236.7,520.8 M235.6,517.3
	c0.1-0.3-0.1-0.5-0.4-0.6c-0.1,0-0.3,0.1-0.3,0.2c0,0.4,0.3,0.4,0.6,0.5C235.6,517.3,235.6,517.3,235.6,517.3 M233.7,512.9
	c-0.3,0.2-0.5,0.4-0.2,0.7c0,0.1,0.3,0.1,0.3,0C234.1,513.4,234.1,513.2,233.7,512.9 M233.3,508.6c0.2-0.3,0.3-0.5,0.3-0.7
	c0-0.1-0.2-0.4-0.4-0.4c-0.3,0-0.5,0.2-0.5,0.5C232.8,508.2,233,508.3,233.3,508.6 M232.4,504.9c-0.1,0-0.2,0-0.3,0
	c-0.1,0-0.3,0-0.4,0.1c-0.4,0.1-0.5,0.4-0.2,0.7c0.2,0.3,0.5,0.5,0.7,0.7c0.2,0.2,0.4,0.3,0.6,0
	C232.7,505.9,232.5,505.4,232.4,504.9 M230.7,511.4c-0.6-0.1-0.7-0.6-0.8-1.1c-0.6-2.4-1.2-4.8-1.9-7.2c-0.1-0.5,0.1-0.8,0.5-1.1
	c0.6-0.4,0.6-0.5,0.3-1.2c-0.4,0.2-0.7,0.3-1.1,0.5c-0.1-0.3-0.2-0.4-0.2-0.6c-0.2-0.7-0.4-0.8-1.1-0.6c-1.4,0.3-2.8,0.7-4.2,1
	c-0.3,0.1-0.6,0.1-0.8,0.2c-0.8,0.2-1,0.1-1.2-0.7c-0.3-1.1-0.6-2.2-0.8-3.3c-0.2-0.7-0.1-0.9,0.6-1.1c1.2-0.3,2.4-0.5,3.6-0.8
	c1.3-0.3,2.6-0.6,4-1c2.2-0.5,4.4-1,6.5-1.6c0.6-0.2,0.8,0.2,1.1,0.7c0.3-0.3,0.6-0.4,0.8-0.7c0.5-0.8,1.4-0.7,2.1-0.8
	c0.1,0,0.4,0.3,0.5,0.4c0.3,1.1,0.6,2.2,0.9,3.4c0.2,0.9,0.1,1-0.8,1.2c-1.6,0.4-3.2,0.8-4.8,1.2c-0.8,0.2-0.9,0.3-0.7,1.1
	c0.3,1.5,0.7,3,1,4.5c0,0.2,0.1,0.4,0.1,0.7c-0.5,0-1.1-0.4-1.4,0.4c0.2,0.2,0.5,0.4,0.7,0.6c0.3-0.2,0.5-0.4,0.7-0.5
	c0.7,0.5,0.7,0.5,0.1,1.7c0.8,0.4,1,1.2,1.1,2c0.2,0.9,0.5,1.7,0.7,2.6c0,0.1,0.1,0.2,0.1,0.4c-0.1,1.4,0.7,2.5,0.9,3.8
	c0.2,1.3,0.6,2.6,0.9,3.8s0.7,2.5,1,3.8c0.2,0.7,0.1,0.9-0.6,1.1c-1.3,0.3-2.6,0.6-3.9,0.9c-1.1,0.3-1.2,0.2-1.4-0.8
	c-0.6-2.2-1.2-4.3-1.7-6.5c-0.4-1.5-0.8-3.1-1.1-4.6C230.5,512.6,230.7,512,230.7,511.4"/>
<path class="st0" d="M336.5,496c-0.1,0.2-0.2,0.3-0.2,0.3c0,0.1,0.2,0.2,0.3,0.2c0.1,0,0.2-0.2,0.2-0.2
	C336.8,496.3,336.7,496.2,336.5,496 M332.9,503.5c-0.2,0.2-0.3,0.3-0.3,0.4c0,0,0.1,0.1,0.2,0.2c0.1-0.1,0.1-0.2,0.2-0.3
	C333,503.8,332.9,503.7,332.9,503.5 M337.5,517.5c-0.2-0.1-0.3-0.2-0.4-0.1c-0.1,0-0.1,0.2-0.2,0.2c0.1,0.1,0.2,0.2,0.3,0.2
	C337.3,517.7,337.3,517.6,337.5,517.5 M332.6,499.9c-0.1,0.2-0.2,0.3-0.2,0.3c0.1,0.1,0.2,0.2,0.3,0.2c0,0,0.2-0.2,0.2-0.2
	C332.9,500.1,332.7,500,332.6,499.9 M334.6,500.3c-0.1,0.2-0.2,0.3-0.1,0.4c0.1,0.1,0.2,0.2,0.3,0.3c0,0,0.2-0.2,0.2-0.2
	C334.9,500.6,334.8,500.5,334.6,500.3 M339.2,515c-0.1-0.1-0.2-0.2-0.3-0.3c-0.1,0.1-0.2,0.2-0.3,0.3c0.1,0.1,0.2,0.3,0.3,0.3
	C338.9,515.2,339,515.1,339.2,515 M335.1,518c0.1-0.2,0.3-0.3,0.3-0.5c0-0.1-0.2-0.3-0.3-0.2c-0.1,0.1-0.3,0.2-0.3,0.3
	C334.7,517.7,334.9,517.9,335.1,518 M335.6,514.5c-0.2-0.1-0.3-0.3-0.3-0.3c-0.2,0.1-0.3,0.2-0.4,0.4c0,0,0.2,0.2,0.2,0.2
	C335.2,514.7,335.4,514.6,335.6,514.5 M330.5,513.1c-0.2-0.2-0.3-0.3-0.4-0.3c-0.1,0-0.3,0.2-0.4,0.3c0.1,0.1,0.2,0.3,0.3,0.3
	C330.2,513.4,330.3,513.2,330.5,513.1 M334.9,506.2c-0.1,0.3-0.3,0.4-0.3,0.6c0,0,0.3,0.2,0.3,0.2c0.1-0.1,0.3-0.3,0.4-0.4
	C335.2,506.5,335,506.4,334.9,506.2 M343.7,515.5c-0.2,0.2-0.4,0.3-0.4,0.4c0,0.3,0.3,0.4,0.5,0.4c0.1,0,0.3-0.3,0.3-0.3
	C344.1,515.8,343.9,515.6,343.7,515.5 M339.8,516.6c-0.4-0.1-0.7,0-0.9,0.3c-0.1,0.1-0.1,0.4,0,0.5c0.1,0.1,0.4,0.1,0.5,0.1
	C339.7,517.3,339.9,517.1,339.8,516.6 M333.7,494c0.4,0.5,0.8,0.3,1.1,0.1c0.3-0.1,0.5-0.4,0.2-0.8
	C334.6,493.3,334.2,493.6,333.7,494 M334.9,505.4c0.2,0.3,0.3,0.5,0.5,0.6c0.4,0.3,0.4,0.6,0.3,1c-0.1,0.8-0.3,1.6-0.4,2.4
	c0,0.2,0,0.4-0.1,0.5c-0.6,0.4-0.5,0.9-0.2,1.4c0.1,0.3-0.1,0.7-0.1,1c-0.1,0.7,0,0.8,0.7,0.9c1.3,0.2,2.6,0.3,3.9,0.5
	c1.8,0.3,3.6,0.6,5.3,0.8c0.4,0.1,0.6,0.3,0.5,0.6c-0.2,1.4-0.4,2.7-0.6,4.1c0,0.2-0.3,0.4-0.5,0.4c-0.2,0.1-0.5,0-0.8,0
	c-2.6-0.4-5.3-0.7-7.9-1.1c-2.1-0.3-4.1-0.5-6.2-0.9c-0.3,0-0.5-0.1-0.8-0.1c-0.6-0.1-0.8-0.3-0.6-0.8c0.3-1.2,0.1-2.5,0.9-3.6
	c0.1-0.1,0-0.3,0-0.5c0-0.5-0.1-0.9,0-1.4c0.2-1.1,0.5-2.2,0.7-3.3c0.1-0.7,0-1.3,0.1-2c0.5-3.2,0.9-6.5,1.4-9.7
	c0.1-0.7,0.2-1.3,1.1-1.4c0.2,0,0.4-0.3,0.4-0.5c0-0.1-0.2-0.4-0.4-0.4c-0.6-0.1-0.6-0.4-0.5-0.9c0.3-1.9,0.6-3.8,0.9-5.6
	c0.1-0.7,0.4-0.9,1.1-0.8c1.4,0.2,2.8,0.4,4.2,0.7c0.6,0.1,0.7,0.2,0.6,0.8c-0.4,2.7-0.8,5.4-1.2,8.1c-0.1,0.4-0.1,0.8-0.2,1.2
	c-0.1,0.5-0.3,0.8-0.8,0.8c-0.5,0-0.6,0.2-0.4,0.7c0.2,0.4,0.4,0.8,0.6,1.2c0.2,0.4,0.1,0.7-0.1,0.9c-0.2,0.4-0.3,0.7-0.2,1.1
	c0.1,0.3,0,0.7,0,1.1c0,0.4-0.1,0.8-0.2,1.2C335.9,505.1,335.9,505.1,334.9,505.4"/>
<path class="st0" d="M319,495.6c-0.2,0.2-0.5,0.4-0.6,0.6c0,0,0.2,0.3,0.3,0.3c0.3,0.1,0.7-0.3,0.7-0.6
	C319.3,495.9,319.2,495.8,319,495.6 M318.7,500.2c0.4-0.4,0.7-0.6,1.1-1c-0.7-0.7-0.9-1.9-2.3-1.7c-0.2,0-0.3-0.2-0.5-0.2
	c-0.5-0.2-0.7,0-0.8,0.6c0.4,0.1,1-0.1,1.3,0.4c-0.1,0.3-0.2,0.5-0.2,0.8C317.7,499.4,318.2,499.8,318.7,500.2 M318.3,485.6
	c0.7,0,1.4,0.1,2.1,0.1c0.8,0.1,1,0.3,0.9,1.1c-0.1,2.4-0.2,4.7-0.5,7.1c-0.4,4.4-0.6,8.8-0.9,13.2c-0.2,1.8-0.4,3.7-0.5,5.5
	c-0.1,1.2-0.1,2.3-0.1,3.5c0,0.9-0.2,1.1-1.1,1c-1.3-0.1-2.7-0.1-4-0.2c-0.8,0-1-0.2-0.9-1c0.2-2.6,0.4-5.1,0.6-7.7
	c0.2-3.1,0.4-6.2,0.6-9.3c0.3-3.8,0.5-7.5,0.8-11.3c0-0.5,0-0.9,0.1-1.4c0.1-0.6,0.3-0.8,0.9-0.7
	C316.9,485.4,317.6,485.5,318.3,485.6C318.3,485.6,318.3,485.6,318.3,485.6"/>
<rect x="126.9" y="360.8" class="st0" width="341.4" height="5.9"/>
</svg>
